<?xml version="1.0" encoding="UTF-8"?>
<svg version="1.1" xmlns="http://www.w3.org/2000/svg" width="800" height="800">
<path d="M0 0 C2.91834217 1.31483573 4.94920929 2.71633276 7.171875 5.01171875 C7.75453125 5.60533203 8.3371875 6.19894531 8.9375 6.81054688 C9.8346875 7.73963867 9.8346875 7.73963867 10.75 8.6875 C14.35441705 12.3995711 17.96541611 16.02320522 21.890625 19.3984375 C26.48496501 23.35813562 30.73721912 27.62669819 35 31.9375 C35.77472656 32.71673828 36.54945313 33.49597656 37.34765625 34.29882812 C39.23410757 36.1969242 41.11816245 38.09733149 43 40 C41.58196374 43.27517135 39.889406 45.28237716 37.26171875 47.6796875 C36.52373047 48.36160156 35.78574219 49.04351562 35.02539062 49.74609375 C34.25388672 50.44863281 33.48238281 51.15117187 32.6875 51.875 C31.16745615 53.26482805 29.65045865 54.65799612 28.13671875 56.0546875 C27.12677856 56.97483643 27.12677856 56.97483643 26.09643555 57.91357422 C23.55452393 60.44334907 21.29585117 63.2449786 19 66 C32.86 66.495 32.86 66.495 47 67 C47.33 75.58 47.66 84.16 48 93 C51.7654902 91.1172549 53.64643414 89.58807351 56.546875 86.6484375 C57.39121094 85.79765625 58.23554688 84.946875 59.10546875 84.0703125 C59.97816406 83.18085938 60.85085937 82.29140625 61.75 81.375 C62.63816406 80.4778125 63.52632813 79.580625 64.44140625 78.65625 C66.63216969 76.44192996 68.81812763 74.22307565 71 72 C74.87949716 73.79532109 77.26961294 76.10067055 80.25 79.1875 C83.29623553 82.33498325 86.34441327 85.33175676 89.671875 88.1796875 C95.0469478 92.82707188 100.00127754 97.89336576 105 102.9375 C105.97502386 103.9175531 106.9502828 104.8973724 107.92578125 105.87695312 C110.28616618 108.24902313 112.64416905 110.6234086 115 113 C113.21799313 116.85027991 110.92324595 119.2799142 107.875 122.25 C106.96492188 123.14203125 106.05484375 124.0340625 105.1171875 124.953125 C104.41851562 125.62859375 103.71984375 126.3040625 103 127 C98.80374091 125.36221955 96.01323215 122.26676818 92.921875 119.1171875 C92.35043762 118.54292023 91.77900024 117.96865295 91.19024658 117.37698364 C89.37207055 115.5476419 87.56098508 113.71145807 85.75 111.875 C84.51608671 110.63105226 83.28171678 109.3875573 82.046875 108.14453125 C79.02593257 105.10157633 76.01132908 102.05246746 73 99 C65.8948219 105.06218096 58.79550157 111.14199843 52.1875 117.75 C51.63320312 118.30300781 51.07890625 118.85601562 50.5078125 119.42578125 C49.12590793 120.8685469 47.83824458 122.40006423 46.5625 123.9375 C43.6993609 126.24197781 41.74284344 126.82840587 38.0534668 126.50708008 C34.88154452 125.72381024 32.87766901 124.62142885 30.44433594 122.43188477 C27.01891299 116.66436651 28.32374792 108.63244209 28.5625 102.125 C28.59763834 100.46621125 28.62957296 98.80735134 28.65820312 97.1484375 C28.73508293 93.09719472 28.85571904 89.04937988 29 85 C27.96593018 85.0314209 26.93186035 85.0628418 25.86645508 85.09521484 C22.01830381 85.20407432 18.17028759 85.27278843 14.32104492 85.32958984 C12.65740043 85.35970545 10.99391398 85.4006085 9.33081055 85.45263672 C6.93498746 85.52569321 4.54126747 85.55950481 2.14453125 85.5859375 C1.4047554 85.61690521 0.66497955 85.64787292 -0.09721375 85.67977905 C-2.98602547 85.68164836 -5.29268034 85.57280149 -7.59054565 83.71194458 C-10.23054787 80.64838686 -11.72336699 78.18653384 -11.75 74.125 C-11.44685719 70.18763234 -10.7554119 68.18542839 -8.0703125 65.29296875 C-7.43738281 64.60783203 -6.80445313 63.92269531 -6.15234375 63.21679688 C-1.3496046 58.27023704 3.56485475 53.44092293 8.5 48.62695312 C9.32242188 47.81548828 10.14484375 47.00402344 10.9921875 46.16796875 C11.73839355 45.43860107 12.48459961 44.7092334 13.25341797 43.95776367 C15.21258527 42.02154543 15.21258527 42.02154543 16 39 C15.18450684 38.67346436 15.18450684 38.67346436 14.35253906 38.34033203 C11.20864082 36.54913222 8.87052333 34.11723419 6.359375 31.5546875 C5.83232971 31.02481232 5.30528442 30.49493713 4.76226807 29.94900513 C3.08674325 28.26232175 1.41832278 26.56880436 -0.25 24.875 C-1.38755851 23.72740612 -2.52557436 22.58026539 -3.6640625 21.43359375 C-6.44803465 18.62761863 -9.2256576 15.81549536 -12 13 C-8.16171005 8.46548035 -4.25222428 4.15098084 0 0 Z " fill="#4FDA9E" transform="translate(188,348)"/>
<path d="M0 0 C5.14122764 4.30320089 9.96224504 8.80863603 14.6875 13.5625 C15.33783203 14.20896484 15.98816406 14.85542969 16.65820312 15.52148438 C19.34489105 18.21364975 21.89242785 20.86539595 24.26953125 23.83984375 C25.99187839 26.21311089 25.99187839 26.21311089 29 28 C29.73114014 27.25314941 30.46228027 26.50629883 31.21557617 25.73681641 C33.93817231 22.95979381 36.67078848 20.19281493 39.40649414 17.42871094 C40.58762505 16.23252243 41.76604575 15.03365136 42.94165039 13.83203125 C44.63497518 12.10219079 46.33791211 10.3823308 48.04296875 8.6640625 C48.56400681 8.12754059 49.08504486 7.59101868 49.62187195 7.03823853 C54.4307476 2.22718418 58.10250764 0.87027159 64.83984375 0.44140625 C68.29314085 1.33439266 70.78356011 3.27708802 73 6 C73.54070475 9.00100827 73.71051888 11.16845437 73.5859375 14.14453125 C73.57744781 14.91431808 73.56895813 15.68410492 73.56021118 16.47721863 C73.52675703 18.9237671 73.45150592 21.36695691 73.375 23.8125 C73.34488948 25.47586368 73.31751555 27.13927929 73.29296875 28.80273438 C73.22699369 32.86977371 73.12353843 36.93431851 73 41 C74.54324951 40.94501343 74.54324951 40.94501343 76.11767578 40.88891602 C79.95268751 40.76174737 83.78751513 40.68169044 87.62402344 40.61547852 C89.28091823 40.5803803 90.9375978 40.53268653 92.59375 40.47192383 C106.28647587 39.98231013 106.28647587 39.98231013 110.43188477 42.44433594 C113.12782669 45.44045038 114.33708346 48.10161117 114.6875 52.125 C113.84199093 56.89059659 112.49901042 57.74719871 109 61 C107.8945161 62.08586587 106.79316388 63.1759492 105.6953125 64.26953125 C105.11475098 64.84469482 104.53418945 65.4198584 103.93603516 66.01245117 C95.39320812 74.01988923 95.39320812 74.01988923 88 83 C87.66985763 86.2501102 87.66985763 86.2501102 90.47851562 88.8190918 C91.61342476 89.9535252 92.75660841 91.07971791 93.90625 92.19921875 C94.50554321 92.79426712 95.10483643 93.38931549 95.72229004 94.00239563 C97.64128092 95.90457052 99.57043112 97.79606205 101.5 99.6875 C102.80146301 100.97392 104.10225318 102.2610211 105.40234375 103.54882812 C108.59380369 106.70718002 111.79441498 109.85598797 115 113 C113.21799313 116.85027991 110.92324595 119.2799142 107.875 122.25 C106.96492188 123.14203125 106.05484375 124.0340625 105.1171875 124.953125 C104.41851562 125.62859375 103.71984375 126.3040625 103 127 C99.56069417 125.51873643 97.33045662 123.57572554 94.69921875 120.9296875 C93.88646484 120.115 93.07371094 119.3003125 92.23632812 118.4609375 C91.39521484 117.60757813 90.55410156 116.75421875 89.6875 115.875 C88.44323242 114.62976563 88.44323242 114.62976563 87.17382812 113.359375 C82.8364968 108.9912339 78.66891251 104.54126877 74.6550293 99.87548828 C71.92540509 96.78226316 69.00030958 93.89396168 66.0625 91 C65.47404297 90.41605469 64.88558594 89.83210938 64.27929688 89.23046875 C62.85520207 87.81795195 61.4279475 86.4086219 60 85 C61.53271547 81.34968275 63.72153877 79.06060249 66.53515625 76.3046875 C67.87223633 74.98404297 67.87223633 74.98404297 69.23632812 73.63671875 C70.16896484 72.72535156 71.10160156 71.81398438 72.0625 70.875 C73.90972167 69.06210385 75.75488421 67.24710642 77.59765625 65.4296875 C78.41758057 64.62772949 79.23750488 63.82577148 80.08227539 62.99951172 C82.0514634 61.14403639 82.0514634 61.14403639 83 59 C73.76 59 64.52 59 55 59 C54.67 49.43 54.34 39.86 54 30 C43.28025584 40.40426751 43.28025584 40.40426751 33.39453125 51.58203125 C31.76033872 53.2436892 30.09139271 54.00355214 28 55 C25.30818725 52.337658 22.62237853 49.66933333 19.9375 47 C19.18533203 46.25621094 18.43316406 45.51242187 17.65820312 44.74609375 C13.52169239 40.62748999 9.5810319 36.42419778 5.77514648 32 C2.53038993 28.34423797 -0.96177678 24.93438342 -4.4375 21.5 C-5.16904297 20.77296875 -5.90058594 20.0459375 -6.65429688 19.296875 C-8.43389824 17.52890501 -10.21580918 15.76333622 -12 14 C-10.21799313 10.14972009 -7.92324595 7.7200858 -4.875 4.75 C-3.96492187 3.85796875 -3.05484375 2.9659375 -2.1171875 2.046875 C-1.41851562 1.37140625 -0.71984375 0.6959375 0 0 Z " fill="#55C0F7" transform="translate(210,326)"/>
<path d="M0 0 C2.91834217 1.31483573 4.94920929 2.71633276 7.171875 5.01171875 C7.75453125 5.60533203 8.3371875 6.19894531 8.9375 6.81054688 C9.8346875 7.73963867 9.8346875 7.73963867 10.75 8.6875 C14.35441705 12.3995711 17.96541611 16.02320522 21.890625 19.3984375 C26.48496501 23.35813562 30.73721912 27.62669819 35 31.9375 C35.77472656 32.71673828 36.54945313 33.49597656 37.34765625 34.29882812 C39.23410757 36.1969242 41.11816245 38.09733149 43 40 C41.58196374 43.27517135 39.889406 45.28237716 37.26171875 47.6796875 C36.52373047 48.36160156 35.78574219 49.04351562 35.02539062 49.74609375 C34.25388672 50.44863281 33.48238281 51.15117187 32.6875 51.875 C31.16745615 53.26482805 29.65045865 54.65799612 28.13671875 56.0546875 C27.12677856 56.97483643 27.12677856 56.97483643 26.09643555 57.91357422 C23.55452393 60.44334907 21.29585117 63.2449786 19 66 C32.86 66.495 32.86 66.495 47 67 C47 67.33 47 67.66 47 68 C46.06728271 67.99363525 45.13456543 67.98727051 44.17358398 67.98071289 C40.68544225 67.97355751 37.20035856 67.99777305 33.71264648 68.04272461 C32.20847139 68.05579878 30.70413537 68.05665869 29.19995117 68.04467773 C20.50474896 67.74826822 20.50474896 67.74826822 12.50952148 70.52172852 C10.77180176 72.25944824 9.39599545 73.98454891 8 76 C0.36922691 83.63077309 0.36922691 83.63077309 -5.0234375 84.140625 C-7 84 -7 84 -9.5 82.1875 C-11.66078952 77.59582227 -12.00511566 73.96918269 -11 69 C-9.7487793 67.08837891 -9.7487793 67.08837891 -8.07421875 65.2890625 C-7.4407251 64.60448975 -6.80723145 63.91991699 -6.15454102 63.21459961 C-1.34685007 58.27289258 3.56484094 53.44093641 8.5 48.62695312 C9.32242188 47.81548828 10.14484375 47.00402344 10.9921875 46.16796875 C11.73839355 45.43860107 12.48459961 44.7092334 13.25341797 43.95776367 C15.21258527 42.02154543 15.21258527 42.02154543 16 39 C15.18450684 38.67346436 15.18450684 38.67346436 14.35253906 38.34033203 C11.20864082 36.54913222 8.87052333 34.11723419 6.359375 31.5546875 C5.83232971 31.02481232 5.30528442 30.49493713 4.76226807 29.94900513 C3.08674325 28.26232175 1.41832278 26.56880436 -0.25 24.875 C-1.38755851 23.72740612 -2.52557436 22.58026539 -3.6640625 21.43359375 C-6.44803465 18.62761863 -9.2256576 15.81549536 -12 13 C-8.16171005 8.46548035 -4.25222428 4.15098084 0 0 Z " fill="#4FDA9E" transform="translate(188,348)"/>
<path d="M0 0 C2.43017578 -0.34057617 2.43017578 -0.34057617 5.4453125 -0.29296875 C7.05986328 -0.2784668 7.05986328 -0.2784668 8.70703125 -0.26367188 C10.39892578 -0.2259668 10.39892578 -0.2259668 12.125 -0.1875 C13.26066406 -0.17396484 14.39632812 -0.16042969 15.56640625 -0.14648438 C18.37807387 -0.11104319 21.18880417 -0.06163517 24 0 C22.15223918 4.02776376 19.4720591 6.71251916 16.3125 9.75 C9.18389234 16.46748406 9.18389234 16.46748406 3 24 C2.66985763 27.2501102 2.66985763 27.2501102 5.47851562 29.8190918 C6.61342476 30.9535252 7.75660841 32.07971791 8.90625 33.19921875 C9.80518982 34.09179131 9.80518982 34.09179131 10.72229004 35.00239563 C12.64128092 36.90457052 14.57043112 38.79606205 16.5 40.6875 C17.80146301 41.97392 19.10225318 43.2610211 20.40234375 44.54882812 C23.59380369 47.70718002 26.79441498 50.85598797 30 54 C28.21799313 57.85027991 25.92324595 60.2799142 22.875 63.25 C21.96492188 64.14203125 21.05484375 65.0340625 20.1171875 65.953125 C19.41851562 66.62859375 18.71984375 67.3040625 18 68 C14.56069417 66.51873643 12.33045662 64.57572554 9.69921875 61.9296875 C8.88646484 61.115 8.07371094 60.3003125 7.23632812 59.4609375 C6.39521484 58.60757813 5.55410156 57.75421875 4.6875 56.875 C3.85798828 56.04484375 3.02847656 55.2146875 2.17382812 54.359375 C-2.1635032 49.9912339 -6.33108749 45.54126877 -10.3449707 40.87548828 C-13.07459491 37.78226316 -15.99969042 34.89396168 -18.9375 32 C-19.52595703 31.41605469 -20.11441406 30.83210938 -20.72070312 30.23046875 C-22.14479793 28.81795195 -23.5720525 27.4086219 -25 26 C-23.52232212 22.58036893 -21.59395344 20.33648994 -18.97265625 17.70703125 C-18.18052734 16.91232422 -17.38839844 16.11761719 -16.57226562 15.29882812 C-15.74404297 14.47833984 -14.91582031 13.65785156 -14.0625 12.8125 C-13.23814453 11.98041016 -12.41378906 11.14832031 -11.56445312 10.29101562 C-10.77103516 9.50017578 -9.97761719 8.70933594 -9.16015625 7.89453125 C-8.43449463 7.17112549 -7.70883301 6.44771973 -6.96118164 5.70239258 C-5 4 -5 4 -2 3 C-1.34 2.01 -0.68 1.02 0 0 Z " fill="#55C0F5" transform="translate(295,385)"/>
<path d="M0 0 C1.34888732 0.00015905 2.69778075 0.00584927 4.04663086 0.01586914 C5.10991859 0.01799156 5.10991859 0.01799156 6.19468689 0.02015686 C8.46699173 0.02577096 10.73919936 0.03832576 13.01147461 0.05102539 C14.54858257 0.05603858 16.08569206 0.0606018 17.62280273 0.06469727 C21.39823103 0.07574497 25.17358632 0.09301898 28.94897461 0.11352539 C31.56686756 28.79220707 31.56686756 28.79220707 25.64428711 36.30102539 C22.52580418 39.50126488 19.04198646 42.08879454 15.43774414 44.71166992 C13.61772217 46.1869454 13.61772217 46.1869454 12.97631836 49.48461914 C12.96729492 50.3521582 12.95827148 51.21969727 12.94897461 52.11352539 C12.28897461 52.11352539 11.62897461 52.11352539 10.94897461 52.11352539 C10.94897461 40.56352539 10.94897461 29.01352539 10.94897461 17.11352539 C-0.60102539 17.11352539 -12.15102539 17.11352539 -24.05102539 17.11352539 C-24.05102539 16.45352539 -24.05102539 15.79352539 -24.05102539 15.11352539 C-22.99915039 15.07227539 -21.94727539 15.03102539 -20.86352539 14.98852539 C-16.7880176 14.05316295 -15.83175813 13.17123482 -13.44555664 9.87524414 C-10.77405778 6.50032541 -7.32216398 3.88787891 -4.05102539 1.11352539 C-3.05102539 0.11352539 -3.05102539 0.11352539 0 0 Z " fill="#F1DF33" transform="translate(206.051025390625,415.886474609375)"/>
<path d="M0 0 C4.80014603 3.39522524 7.26651747 7.08857715 8.5625 12.8125 C8.5625 16.1125 8.5625 19.4125 8.5625 22.8125 C0.6425 22.8125 -7.2775 22.8125 -15.4375 22.8125 C-13.66898964 25.99324165 -13.66898964 25.99324165 -11.4375 28.8125 C-6.01248256 29.39535311 -1.89363675 29.26241232 2.5625 25.8125 C4.2125 27.4625 5.8625 29.1125 7.5625 30.8125 C6.3880509 34.46634165 4.17314972 36.28090558 0.81640625 38.046875 C-5.2618428 40.11158352 -12.11041453 39.79347839 -17.9375 37.125 C-22.50462434 34.41504655 -24.83588159 31.4368697 -26.6875 26.4375 C-28.41259687 18.0995318 -27.14963359 11.11450501 -22.625 3.9375 C-16.27353998 -2.23248973 -8.17264122 -2.82327606 0 0 Z M-14.375 9.625 C-15.65595198 11.85693999 -15.65595198 11.85693999 -15.4375 14.8125 C-11.1475 14.8125 -6.8575 14.8125 -2.4375 14.8125 C-2.92902482 9.95117505 -2.92902482 9.95117505 -5.4375 7.8125 C-10.36494313 7.16067389 -10.36494313 7.16067389 -14.375 9.625 Z " fill="#E1E1E1" transform="translate(436.4375,387.1875)"/>
<path d="M0 0 C0.33 9.57 0.66 19.14 1 29 C10.9 29 20.8 29 31 29 C27.48171824 33.10466205 24.18639309 36.9367121 20.375 40.6875 C19.64023437 41.41324219 18.90546875 42.13898438 18.1484375 42.88671875 C17.43945312 43.58410156 16.73046875 44.28148437 16 45 C14.6655207 46.33218638 13.33182589 47.66516093 12 49 C11.34 48.67 10.68 48.34 10 48 C10.66 47.01 11.32 46.02 12 45 C3.09 45 -5.82 45 -15 45 C-17.26480352 16.06084389 -17.26480352 16.06084389 -11.91796875 8.82421875 C-3.6850305 0 -3.6850305 0 0 0 Z " fill="#9971FE" transform="translate(281,340)"/>
<path d="M0 0 C14.19 0 28.38 0 43 0 C44.54578627 3.09157253 43.60277633 5.68473019 43 9 C42.67 9.33 42.34 9.66 42 10 C37.05 10 32.1 10 27 10 C27 23.86 27 37.72 27 52 C23.04 52 19.08 52 15 52 C15 38.14 15 24.28 15 10 C10.05 10 5.1 10 0 10 C0 6.7 0 3.4 0 0 Z " fill="#DBDBDB" transform="translate(484,373)"/>
<path d="M0 0 C14.19 0 28.38 0 43 0 C43 3.3 43 6.6 43 10 C37.72 10 32.44 10 27 10 C27 23.86 27 37.72 27 52 C23.37 52 19.74 52 16 52 C16 38.14 16 24.28 16 10 C10.72 10 5.44 10 0 10 C0 6.7 0 3.4 0 0 Z " fill="#E4E4E4" transform="translate(367,373)"/>
<path d="M0 0 C4.12500717 -0.54065628 7.89966535 -0.79815674 12 0 C14.95674814 2.77804358 16.15074425 5.3014885 18 9 C19.65 6.03 21.3 3.06 23 0 C26.96 0 30.92 0 35 0 C32.94158985 5.14602538 30.3267415 9.4064823 27.36328125 14.0625 C25.83050521 16.82167875 25.83050521 16.82167875 26.0078125 19.390625 C27.42770391 23.12482761 29.44012449 26.3763005 31.5625 29.75 C36 36.90117602 36 36.90117602 36 38 C31.8501683 38.60434442 28.11918207 38.89091724 24 38 C21.15028144 35.02501908 19.54516951 31.79515318 18 28 C17.70609375 28.721875 17.4121875 29.44375 17.109375 30.1875 C15.63930587 33.22902234 14.34377866 35.5531981 12 38 C7.88081793 38.89091724 4.1498317 38.60434442 0 38 C1.26943341 34.25447396 3.1104217 31.47275506 5.42822266 28.29272461 C7.47155722 25.33860139 9.29466079 22.56448209 10 19 C9.16696528 14.79019955 6.71411999 11.47153072 4.2265625 8.05859375 C2.26695172 5.36670736 1.05996124 3.12746804 0 0 Z " fill="#E8E8E8" transform="translate(447,387)"/>
<path d="M0 0 C3.47810984 0.92587162 5.99178671 2.84040571 8.23046875 5.59375 C8.7711735 8.59475827 8.94098763 10.76220437 8.81640625 13.73828125 C8.80791656 14.50806808 8.79942688 15.27785492 8.79067993 16.07096863 C8.75722578 18.5175171 8.68197467 20.96070691 8.60546875 23.40625 C8.57535823 25.06961368 8.5479843 26.73302929 8.5234375 28.39648438 C8.45746244 32.46352371 8.35400718 36.52806851 8.23046875 40.59375 C9.77371826 40.53876343 9.77371826 40.53876343 11.34814453 40.48266602 C15.18315626 40.35549737 19.01798388 40.27544044 22.85449219 40.20922852 C24.51138698 40.1741303 26.16806655 40.12643653 27.82421875 40.06567383 C41.51155811 39.57625274 41.51155811 39.57625274 45.66674805 42.03588867 C48.41799328 45.08425697 49.54611276 47.67685139 49.79296875 51.78125 C49.22618584 55.62277859 48.93612644 56.94607851 46.23046875 59.59375 C43.68676758 59.95605469 43.68676758 59.95605469 40.6875 59.765625 C39.0777832 59.67861328 39.0777832 59.67861328 37.43554688 59.58984375 C36.31599609 59.50863281 35.19644531 59.42742187 34.04296875 59.34375 C32.91181641 59.27800781 31.78066406 59.21226562 30.61523438 59.14453125 C27.81864873 58.9793321 25.02465156 58.7950299 22.23046875 58.59375 C26.67917998 53.25529653 31.27531684 48.54890191 36.23046875 43.59375 C26.66046875 43.26375 17.09046875 42.93375 7.23046875 42.59375 C6.19332353 39.48231433 6.03015014 37.09906904 5.9140625 33.83203125 C5.87216797 32.71376953 5.83027344 31.59550781 5.78710938 30.44335938 C5.74779297 29.27611328 5.70847656 28.10886719 5.66796875 26.90625 C5.62478516 25.72740234 5.58160156 24.54855469 5.53710938 23.33398438 C5.43095699 20.42069117 5.32890633 17.50731243 5.23046875 14.59375 C-0.23926602 18.00948145 -4.91957934 21.68351763 -7.76953125 27.59375 C-9.74820792 37.73345289 -9.2152703 48.31894212 -8.76953125 58.59375 C-9.09953125 58.59375 -9.42953125 58.59375 -9.76953125 58.59375 C-9.93679814 54.19739953 -10.09739218 49.80087239 -10.25170898 45.40405273 C-10.30519559 43.90724062 -10.36052995 42.41049337 -10.41772461 40.91381836 C-10.49945081 38.76690668 -10.57460585 36.61985207 -10.6484375 34.47265625 C-10.69556885 33.1791626 -10.7427002 31.88566895 -10.79125977 30.55297852 C-10.76953125 27.59375 -10.76953125 27.59375 -9.76953125 26.59375 C-9.6484461 24.92217508 -9.58992796 23.24597431 -9.55859375 21.5703125 C-9.53023438 20.549375 -9.501875 19.5284375 -9.47265625 18.4765625 C-9.42076433 16.31266933 -9.3764366 14.14858095 -9.33984375 11.984375 C-9.30890625 10.96085937 -9.27796875 9.93734375 -9.24609375 8.8828125 C-9.22627441 7.94131348 -9.20645508 6.99981445 -9.18603516 6.02978516 C-8.76953125 3.59375 -8.76953125 3.59375 -7.47802734 1.79443359 C-5.12248784 0.13902586 -2.81746533 0.1349684 0 0 Z " fill="#594BC0" transform="translate(274.76953125,326.40625)"/>
<path d="M0 0 C3.63 0 7.26 0 11 0 C11 3.3 11 6.6 11 10 C13.31 10 15.62 10 18 10 C18 12.64 18 15.28 18 18 C15.69 18 13.38 18 11 18 C11.33 24.93 11.66 31.86 12 39 C13.98 39.33 15.96 39.66 18 40 C18.09765625 46.15234375 18.09765625 46.15234375 18 48 C16.36069007 49.63930993 14.50256326 49.21001367 12.25 49.25 C8.01262431 49.20157285 5.29594561 48.88395241 2 46 C-0.0655176 42.73903803 -0.2359553 40.17979842 -0.1953125 36.359375 C-0.18886719 35.28945313 -0.18242188 34.21953125 -0.17578125 33.1171875 C-0.15902344 32.00601563 -0.14226563 30.89484375 -0.125 29.75 C-0.11597656 28.62335938 -0.10695313 27.49671875 -0.09765625 26.3359375 C-0.07410658 23.55707635 -0.0412168 20.7786461 0 18 C-1.65 18 -3.3 18 -5 18 C-5 15.36 -5 12.72 -5 10 C-3.35 10 -1.7 10 0 10 C0 6.7 0 3.4 0 0 Z " fill="#E3E3E3" transform="translate(552,377)"/>
<path d="M0 0 C3.63 0 7.26 0 11 0 C11 12.54 11 25.08 11 38 C7.37 38 3.74 38 0 38 C0 25.46 0 12.92 0 0 Z " fill="#EAEAEA" transform="translate(532,387)"/>
<path d="M0 0 C2.35302734 -0.35644531 2.35302734 -0.35644531 5.3359375 -0.328125 C6.4506543 -0.32361328 7.56537109 -0.31910156 8.71386719 -0.31445312 C10.52612793 -0.28254883 10.52612793 -0.28254883 12.375 -0.25 C14.22593262 -0.23356445 14.22593262 -0.23356445 16.11425781 -0.21679688 C29.41613211 -0.06208481 42.71031365 0.4261688 56 1 C56 1.33 56 1.66 56 2 C55.06728271 1.99363525 54.13456543 1.98727051 53.17358398 1.98071289 C49.68544225 1.97355751 46.20035856 1.99777305 42.71264648 2.04272461 C41.20847139 2.05579878 39.70413537 2.05665869 38.19995117 2.04467773 C29.50474896 1.74826822 29.50474896 1.74826822 21.50952148 4.52172852 C19.77180176 6.25944824 18.39599545 7.98454891 17 10 C9.36922691 17.63077309 9.36922691 17.63077309 3.9765625 18.140625 C2 18 2 18 -0.5 16.1875 C-2.55961667 11.81081458 -2.69512923 7.76890987 -2 3 C-1.34 2.01 -0.68 1.02 0 0 Z " fill="#29A269" transform="translate(179,414)"/>
<path d="M0 0 C0.33 0.99 0.66 1.98 1 3 C0.360625 3.64710938 -0.27875 4.29421875 -0.9375 4.9609375 C-4.10726914 9.63154429 -3.27185412 14.13354685 -3 19.625 C-2.89804965 21.69968969 -2.8138834 23.77535199 -2.75 25.8515625 C-2.70359375 26.76760254 -2.6571875 27.68364258 -2.609375 28.62744141 C-3 31 -3 31 -4.7734375 32.79052734 C-8.15144636 34.62546768 -11.30979903 34.74086253 -15 34 C-17.896516 32.65069131 -18.86239485 31.57608825 -21 29 C-21.13109413 25.40802093 -20.78369424 23.0026849 -18.53393555 20.12426758 C-16.60168232 18.15463407 -14.61118399 16.28566645 -12.5625 14.4375 C-6.29806462 8.72134497 -6.29806462 8.72134497 -3 1 C-2.01 0.67 -1.02 0.34 0 0 Z " fill="#23AE7A" transform="translate(239,440)"/>
<path d="M0 0 C3.32866588 3.32866588 3.33838534 5.45578451 3.515625 10.1171875 C3.07141745 12.91992564 2.16100088 14.15410011 0.1875 16.1875 C-2.35620117 16.54980469 -2.35620117 16.54980469 -5.35546875 16.359375 C-6.42861328 16.30136719 -7.50175781 16.24335938 -8.60742188 16.18359375 C-9.72697266 16.10238281 -10.84652344 16.02117187 -12 15.9375 C-13.13115234 15.87175781 -14.26230469 15.80601562 -15.42773438 15.73828125 C-18.22432002 15.5730821 -21.01831719 15.3887799 -23.8125 15.1875 C-20.39004894 11.15555152 -16.96633898 7.13844009 -13.3125 3.3125 C-12.6009375 2.55195313 -11.889375 1.79140625 -11.15625 1.0078125 C-7.26328348 -2.01572483 -4.18391213 -2.69629893 0 0 Z " fill="#554DDC" transform="translate(320.8125,369.8125)"/>
<path d="M0 0 C0.33 0.66 0.66 1.32 1 2 C0.01 3.32 -0.98 4.64 -2 6 C10.87 6.495 10.87 6.495 24 7 C24 19.21 24 31.42 24 44 C23.67 44 23.34 44 23 44 C23 32.45 23 20.9 23 9 C11.45 9 -0.1 9 -12 9 C-12 8.34 -12 7.68 -12 7 C-10.948125 6.95875 -9.89625 6.9175 -8.8125 6.875 C-3.81527945 5.72809692 -2.87714602 4.09775342 0 0 Z " fill="#949535" transform="translate(194,424)"/>
<path d="M0 0 C4.91935902 4.11619836 9.52647956 8.40410362 14 13 C12.52651292 16.42527887 10.59092154 18.64955058 7.9375 21.25 C7.22464844 21.95640625 6.51179688 22.6628125 5.77734375 23.390625 C4 25 4 25 3 25 C3.33 22.69 3.66 20.38 4 18 C5.32 18 6.64 18 8 18 C8.34880834 14.80575932 8.34880834 14.80575932 5.6875 12.625 C4.3571875 11.325625 4.3571875 11.325625 3 10 C0.46842196 6.50816821 -0.3699177 4.31570653 0 0 Z " fill="#4CA4D1" transform="translate(311,426)"/>
<path d="M0 0 C3.81240932 0.51519045 5.3794118 1.26029415 8 4 C8.99 4 9.98 4 11 4 C11 4.66 11 5.32 11 6 C12.0828125 5.7215625 12.0828125 5.7215625 13.1875 5.4375 C16.12826973 4.98004693 18.14103058 5.26483643 21 6 C20.34 4.68 19.68 3.36 19 2 C20.32 2.33 21.64 2.66 23 3 C22.43040847 6.62613199 21.07625466 8.25517741 18.4375 10.75 C17.47650391 11.67039062 17.47650391 11.67039062 16.49609375 12.609375 C15.75552734 13.29773438 15.75552734 13.29773438 15 14 C10.94772191 12.38873705 8.23778153 9.49978002 5.25 6.4375 C4.74339844 5.93025391 4.23679688 5.42300781 3.71484375 4.90039062 C0 1.14048812 0 1.14048812 0 0 Z " fill="#4DA5CF" transform="translate(225,367)"/>
<path d="M0 0 C0.70125 0.00515625 1.4025 0.0103125 2.125 0.015625 C2.82625 0.01046875 3.5275 0.0053125 4.25 0 C6.125 0.265625 6.125 0.265625 8.125 2.265625 C8.5 5.203125 8.5 5.203125 8.125 8.265625 C6.5 10.203125 6.5 10.203125 4.125 11.265625 C0.45206204 11.04524872 -1.24466546 10.89595954 -3.875 8.265625 C-4.125 5.265625 -4.125 5.265625 -3.875 2.265625 C-1.875 0.265625 -1.875 0.265625 0 0 Z " fill="#D5D5D5" transform="translate(534.875,371.734375)"/>
<path d="M0 0 C0.33 0 0.66 0 1 0 C1 9.24 1 18.48 1 28 C11.23 28 21.46 28 32 28 C30.35 29.98 28.7 31.96 27 34 C26.34 33.67 25.68 33.34 25 33 C25.66 32.01 26.32 31.02 27 30 C18.09 30 9.18 30 0 30 C0 20.1 0 10.2 0 0 Z " fill="#8B75DA" transform="translate(266,355)"/>
<path d="M0 0 C3.79450934 0.39253545 5.51015791 2.24338912 8 5 C7.67 5.66 7.34 6.32 7 7 C6.34 7 5.68 7 5 7 C4.67 7.99 4.34 8.98 4 10 C3.67 9.67 3.34 9.34 3 9 C2.67 10.65 2.34 12.3 2 14 C1.01 14 0.02 14 -1 14 C-1.103125 13.360625 -1.20625 12.72125 -1.3125 12.0625 C-1.539375 11.381875 -1.76625 10.70125 -2 10 C-2.99 9.67 -3.98 9.34 -5 9 C-4.34 8.67 -3.68 8.34 -3 8 C-2.29508733 5.67793475 -1.62787571 3.34406932 -1 1 C-0.67 0.67 -0.34 0.34 0 0 Z " fill="#58C5FD" transform="translate(312,437)"/>
<path d="M0 0 C0.33 0 0.66 0 1 0 C1.06058594 0.89203125 1.12117187 1.7840625 1.18359375 2.703125 C1.26738281 3.87359375 1.35117188 5.0440625 1.4375 6.25 C1.51871094 7.41015625 1.59992188 8.5703125 1.68359375 9.765625 C1.93247787 12.30977376 2.28114942 14.55953248 3 17 C3.66 17 4.32 17 5 17 C4.67 18.98 4.34 20.96 4 23 C4.99 23.33 5.98 23.66 7 24 C6.195625 24.70125 5.39125 25.4025 4.5625 26.125 C1.76566189 29.26291593 1.28691249 30.88758763 1 35 C0.67 35 0.34 35 0 35 C0 23.45 0 11.9 0 0 Z " fill="#E5E049" transform="translate(218,433)"/>
<path d="M0 0 C1.32 1.32 2.64 2.64 4 4 C1.69 4.33 -0.62 4.66 -3 5 C-3.33 6.32 -3.66 7.64 -4 9 C-5.32 9.33 -6.64 9.66 -8 10 C-7.67 10.99 -7.34 11.98 -7 13 C-7.33 13.66 -7.66 14.32 -8 15 C-7.34 15 -6.68 15 -6 15 C-5.87625 15.639375 -5.7525 16.27875 -5.625 16.9375 C-5.41875 17.618125 -5.2125 18.29875 -5 19 C-4.34 19.33 -3.68 19.66 -3 20 C-6 20 -6 20 -7.60546875 18.6875 C-8.12753906 18.130625 -8.64960938 17.57375 -9.1875 17 C-9.71730469 16.443125 -10.24710938 15.88625 -10.79296875 15.3125 C-11.39044922 14.6628125 -11.39044922 14.6628125 -12 14 C-10.41332422 10.09714233 -7.86649519 7.66479018 -4.875 4.75 C-3.96492187 3.85796875 -3.05484375 2.9659375 -2.1171875 2.046875 C-1.41851562 1.37140625 -0.71984375 0.6959375 0 0 Z " fill="#4C98BE" transform="translate(210,326)"/>
<path d="M0 0 C1.32 0.66 2.64 1.32 4 2 C4 2.99 4 3.98 4 5 C3.67 4.34 3.34 3.68 3 3 C1.35 3.33 -0.3 3.66 -2 4 C-2 6.31 -2 8.62 -2 11 C-4.07553648 11.5534764 -5.84365964 12 -8 12 C-8 12.66 -8 13.32 -8 14 C-9.32 13.67 -10.64 13.34 -12 13 C-8.19524578 8.43969176 -4.25030379 4.14910608 0 0 Z " fill="#50C895" transform="translate(188,348)"/>
<path d="M0 0 C0.33 1.32 0.66 2.64 1 4 C1.33 4.99 1.66 5.98 2 7 C1.34 7 0.68 7 0 7 C-0.04125 7.61875 -0.0825 8.2375 -0.125 8.875 C-0.558125 9.926875 -0.558125 9.926875 -1 11 C-4.0625 12.25 -4.0625 12.25 -7 13 C-7.33 12.34 -7.66 11.68 -8 11 C-8.99 11 -9.98 11 -11 11 C-7.37 7.37 -3.74 3.74 0 0 Z " fill="#4CD39A" transform="translate(200,393)"/>
<path d="M0 0 C0.33 0.99 0.66 1.98 1 3 C0.38125 3.7425 -0.2375 4.485 -0.875 5.25 C-3.29376969 7.90880009 -3.29376969 7.90880009 -3.5 11.625 C-4 15 -4 15 -6.0625 16.9375 C-6.701875 17.288125 -7.34125 17.63875 -8 18 C-8.33 16.68 -8.66 15.36 -9 14 C-10.98 14.99 -10.98 14.99 -13 16 C-12.04270084 14.87411986 -11.08412105 13.7493285 -10.125 12.625 C-9.59132812 11.99851562 -9.05765625 11.37203125 -8.5078125 10.7265625 C-7.38567993 9.44163349 -6.20628025 8.20628025 -5 7 C-4.690625 5.989375 -4.38125 4.97875 -4.0625 3.9375 C-3.711875 2.968125 -3.36125 1.99875 -3 1 C-2.01 0.67 -1.02 0.34 0 0 Z " fill="#37B26B" transform="translate(239,440)"/>
<path d="M0 0 C-0.50057152 4.38000076 -1.93193534 6.84169815 -5 10 C-5.99 10 -6.98 10 -8 10 C-8 9.34 -8 8.68 -8 8 C-9.32 8.33 -10.64 8.66 -12 9 C-9.5695747 3.57828202 -6.21302437 0 0 0 Z " fill="#F0E12F" transform="translate(207,417)"/>
<path d="M0 0 C0.99 0.33 1.98 0.66 3 1 C2.01 1.33 1.02 1.66 0 2 C-0.33740301 3.33230931 -0.6700192 4.66583301 -1 6 C-4.82769825 10.84171855 -8.78657061 14.75731412 -15 16 C-10.30233025 10.33870569 -5.25276628 5.14771096 0 0 Z " fill="#42A076" transform="translate(259,420)"/>
<path d="M0 0 C0.99 0 1.98 0 3 0 C1.55746343 3.36591866 -0.33264727 5.51047079 -3 8 C-6.7952131 6.50902342 -8.61042731 4.24299151 -11 1 C-9.68 1 -8.36 1 -7 1 C-7 1.66 -7 2.32 -7 3 C-4.02934491 2.65772428 -4.02934491 2.65772428 -1 2 C-0.67 1.34 -0.34 0.68 0 0 Z " fill="#419E75" transform="translate(294,467)"/>
<path d="M0 0 C0 3.34419152 -0.47519394 4.06840321 -2.375 6.6875 C-2.81585938 7.31011719 -3.25671875 7.93273437 -3.7109375 8.57421875 C-4.13632812 9.04472656 -4.56171875 9.51523437 -5 10 C-5.66 10 -6.32 10 -7 10 C-7.33 11.32 -7.66 12.64 -8 14 C-9.32 14 -10.64 14 -12 14 C-12.33 14.99 -12.66 15.98 -13 17 C-13 13 -13 13 -11.80664062 11.35253906 C-11.26201172 10.82885742 -10.71738281 10.30517578 -10.15625 9.765625 C-9.56972656 9.19199219 -8.98320312 8.61835938 -8.37890625 8.02734375 C-7.75886719 7.44082031 -7.13882812 6.85429687 -6.5 6.25 C-5.87996094 5.64800781 -5.25992187 5.04601562 -4.62109375 4.42578125 C-3.08955179 2.94136366 -1.54590226 1.46945655 0 0 Z " fill="#4284A7" transform="translate(284,395)"/>
<path d="M0 0 C0.66 0.33 1.32 0.66 2 1 C0.52651292 4.42527887 -1.40907846 6.64955058 -4.0625 9.25 C-4.77535156 9.95640625 -5.48820312 10.6628125 -6.22265625 11.390625 C-8 13 -8 13 -9 13 C-8.67 10.69 -8.34 8.38 -8 6 C-6.68 6 -5.36 6 -4 6 C-3.67 4.35 -3.34 2.7 -3 1 C-2.01 0.67 -1.02 0.34 0 0 Z " fill="#4292B7" transform="translate(323,438)"/>
<path d="M0 0 C0 0.99 0 1.98 0 3 C0.33 3.99 0.66 4.98 1 6 C0.67 6.66 0.34 7.32 0 8 C-0.66 8 -1.32 8 -2 8 C-2 9.32 -2 10.64 -2 12 C-0.35 12.33 1.3 12.66 3 13 C1.02 13.99 1.02 13.99 -1 15 C-3.125 12.9375 -3.125 12.9375 -5 10 C-4.34268057 5.76394148 -3.46490168 2.67742403 0 0 Z " fill="#36A360" transform="translate(223,458)"/>
<path d="M0 0 C0.98120464 3.05263664 0.98120464 4.94736336 0 8 C1.32 8.66 2.64 9.32 4 10 C4 10.99 4 11.98 4 13 C-2.70459519 7.9059081 -2.70459519 7.9059081 -3.9375 4.125 C-3.958125 3.42375 -3.97875 2.7225 -4 2 C-2.68 2 -1.36 2 0 2 C0 1.34 0 0.68 0 0 Z " fill="#54AFDC" transform="translate(276,407)"/>
<path d="M0 0 C7.26 0 14.52 0 22 0 C20.11656068 3.76687864 19.30867531 4.79421646 16 7 C16.33 5.35 16.66 3.7 17 2 C11.39 1.67 5.78 1.34 0 1 C0 0.67 0 0.34 0 0 Z " fill="#649BFD" transform="translate(297,385)"/>
<path d="M0 0 C0.33 0 0.66 0 1 0 C1 1.65 1 3.3 1 5 C0.67 5 0.34 5 0 5 C-0.24428343 10.7974423 -0.24428343 10.7974423 2 16 C4.64 16 7.28 16 10 16 C10 16.33 10 16.66 10 17 C7.1488586 17.6177473 4.87440394 18.09873907 2 18 C-0.5 16.1875 -0.5 16.1875 -2 13 C-2.61991801 8.00091758 -2.84103713 4.26155569 0 0 Z " fill="#40864E" transform="translate(179,414)"/>
<path d="M0 0 C7.03839122 2.6142596 7.03839122 2.6142596 10 5 C10.8125 8.6875 10.8125 8.6875 11 12 C7.08060535 8.19588166 3.50897269 4.18423892 0 0 Z " fill="#54A9D2" transform="translate(212,353)"/>
<path d="M0 0 C0.33 0 0.66 0 1 0 C1.12375 0.94875 1.2475 1.8975 1.375 2.875 C1.71687177 6.08667191 1.71687177 6.08667191 4 8 C4 8.99 4 9.98 4 11 C6.31 11 8.62 11 11 11 C11.33 9.68 11.66 8.36 12 7 C12.99 8.485 12.99 8.485 14 10 C11.59653621 12.40346379 10.86099805 12.32083747 7.5625 12.375 C3.34792277 12.25303474 3.34792277 12.25303474 0.9375 10.5 C-0.4196317 6.88098213 -0.19274768 3.85495364 0 0 Z " fill="#37B06F" transform="translate(178,418)"/>
<path d="M0 0 C0.33 1.32 0.66 2.64 1 4 C-0.98 4.66 -2.96 5.32 -5 6 C-5 5.34 -5 4.68 -5 4 C-6.45833358 2.37485532 -6.45833358 2.37485532 -8 1 C-5.29120665 -0.35439668 -2.99066732 -0.06501451 0 0 Z " fill="#584BE4" transform="translate(276,329)"/>
<path d="M0 0 C0 2.83967231 -0.40267181 5.23735711 -1 8 C-1.66 8 -2.32 8 -3 8 C-3 8.66 -3 9.32 -3 10 C-4.65 10 -6.3 10 -8 10 C-6.34908222 5.70761377 -3.26245434 3.1206085 0 0 Z " fill="#4CBC8D" transform="translate(188,405)"/>
<path d="M0 0 C0.66 0.33 1.32 0.66 2 1 C0.125 4.875 0.125 4.875 -1 6 C-2.34267413 6.08631874 -3.68974322 6.10706473 -5.03515625 6.09765625 C-5.84404297 6.09443359 -6.65292969 6.09121094 -7.48632812 6.08789062 C-8.33646484 6.07951172 -9.18660156 6.07113281 -10.0625 6.0625 C-10.91650391 6.05798828 -11.77050781 6.05347656 -12.65039062 6.04882812 C-14.76695663 6.03700373 -16.88348685 6.01906769 -19 6 C-19 5.67 -19 5.34 -19 5 C-16.54203147 4.80563509 -14.08390706 4.6192258 -11.625 4.4375 C-10.92632812 4.38142578 -10.22765625 4.32535156 -9.5078125 4.26757812 C-4.2265625 3.88671875 -4.2265625 3.88671875 -2 5 C-2 4.01 -2 3.02 -2 2 C-1.34 2 -0.68 2 0 2 C0 1.34 0 0.68 0 0 Z " fill="#4BCD94" transform="translate(206,409)"/>
<path d="M0 0 C1.76462683 3.08809695 2 4.23312136 2 8 C1.01 8 0.02 8 -1 8 C-1 7.34 -1 6.68 -1 6 C-2.32 6.33 -3.64 6.66 -5 7 C-3.70700306 4.11562221 -2.34058637 2.12780579 0 0 Z " fill="#E1E342" transform="translate(200,419)"/>
<path d="M0 0 C3.27725968 0.05958654 3.94187595 0.22850076 6.625 2.375 C7.12 3.035 7.615 3.695 8.125 4.375 C6.35380197 4.23366501 4.58304713 4.08676792 2.8125 3.9375 C1.82636719 3.85628906 0.84023438 3.77507812 -0.17578125 3.69140625 C-2.875 3.375 -2.875 3.375 -5.875 2.375 C-3.875 0.375 -3.875 0.375 0 0 Z " fill="#413B9B" transform="translate(272.875,326.625)"/>
<path d="M0 0 C0.66 0.99 1.32 1.98 2 3 C2.66 3.66 3.32 4.32 4 5 C2.02 5.33 0.04 5.66 -2 6 C-2 5.34 -2 4.68 -2 4 C-2.66 4 -3.32 4 -4 4 C-4 3.01 -4 2.02 -4 1 C-2.68 0.67 -1.36 0.34 0 0 Z " fill="#52E6A7" transform="translate(289,464)"/>
<path d="M0 0 C1 3 1 3 1 5 C-0.65 5 -2.3 5 -4 5 C-4.28875 5.639375 -4.5775 6.27875 -4.875 6.9375 C-6 9 -6 9 -8 10 C-7.04735876 5.80837855 -6.36739592 4.2792209 -2.875 1.625 C-1.92625 1.08875 -0.9775 0.5525 0 0 Z " fill="#30B373" transform="translate(230,453)"/>
<path d="M0 0 C0.33 0 0.66 0 1 0 C1.36923077 7.38461538 1.36923077 7.38461538 -0.5 10.5 C-0.995 10.995 -1.49 11.49 -2 12 C-4.97 11.505 -4.97 11.505 -8 11 C-8 10.67 -8 10.34 -8 10 C-6.02 10 -4.04 10 -2 10 C-2 8.35 -2 6.7 -2 5 C-1.34 5 -0.68 5 0 5 C0 3.35 0 1.7 0 0 Z " fill="#403FA0" transform="translate(323,374)"/>
<path d="M0 0 C3.23486594 0.70177877 4.89181195 1.36476494 7 4 C7 4.66 7 5.32 7 6 C7.99 6.33 8.98 6.66 10 7 C6 7 6 7 4.296875 5.46875 C3.78640625 4.8190625 3.2759375 4.169375 2.75 3.5 C2.22921875 2.8503125 1.7084375 2.200625 1.171875 1.53125 C0.78515625 1.0259375 0.3984375 0.520625 0 0 Z " fill="#438BAB" transform="translate(304,445)"/>
<path d="M0 0 C3.11954738 0.33724836 4.6209965 0.6209965 6.875 2.875 C7.24625 3.57625 7.6175 4.2775 8 5 C7.67 5.99 7.34 6.98 7 8 C5.83035398 6.8572081 4.66435444 5.71068285 3.5 4.5625 C2.8503125 3.92441406 2.200625 3.28632813 1.53125 2.62890625 C0 1 0 1 0 0 Z " fill="#4186A9" transform="translate(225,367)"/>
<path d="M0 0 C1.32 0.66 2.64 1.32 4 2 C4 2.99 4 3.98 4 5 C3.67 4.34 3.34 3.68 3 3 C2.071875 3.495 1.14375 3.99 0.1875 4.5 C-3 6 -3 6 -6 6 C-4.02 4.02 -2.04 2.04 0 0 Z " fill="#419874" transform="translate(188,348)"/>
<path d="M0 0 C0.33 0.99 0.66 1.98 1 3 C-0.9375 5.6875 -0.9375 5.6875 -3 8 C-4.32 7.67 -5.64 7.34 -7 7 C-4.69 4.69 -2.38 2.38 0 0 Z " fill="#4086AA" transform="translate(251,342)"/>
<path d="M0 0 C0.66 0.33 1.32 0.66 2 1 C-1.96 4.465 -1.96 4.465 -6 8 C-6.33 7.01 -6.66 6.02 -7 5 C-4.88437775 2.67281553 -2.94982021 1.14186589 0 0 Z " fill="#4FC894" transform="translate(247,434)"/>
<path d="M0 0 C0.99 0 1.98 0 3 0 C3 0.99 3 1.98 3 3 C2.34 3 1.68 3 1 3 C1.66 4.65 2.32 6.3 3 8 C2.01 8.495 2.01 8.495 1 9 C0.34 8.67 -0.32 8.34 -1 8 C-0.67 5.36 -0.34 2.72 0 0 Z " fill="#52C7FD" transform="translate(277,407)"/>
<path d="M0 0 C0.66 0.33 1.32 0.66 2 1 C0.49616703 5.21073233 -2.20664956 6.83237117 -6 9 C-6.99 9 -7.98 9 -9 9 C-6.03 6.03 -3.06 3.06 0 0 Z " fill="#634DE0" transform="translate(312,369)"/>
<path d="M0 0 C0.33 0.66 0.66 1.32 1 2 C-0.4375 4.625 -0.4375 4.625 -2 7 C-3.65 6.67 -5.3 6.34 -7 6 C-7 5.01 -7 4.02 -7 3 C-5.68 3 -4.36 3 -3 3 C-1.2488427 1.5833253 -1.2488427 1.5833253 0 0 Z " fill="#4388AF" transform="translate(243,350)"/>
<path d="M0 0 C-0.8345262 2.50357861 -1.79371992 4.66785852 -3 7 C-3.99 6.67 -4.98 6.34 -6 6 C-5.625 3.5625 -5.625 3.5625 -5 1 C-3 0 -3 0 0 0 Z " fill="#51E5A7" transform="translate(191,351)"/>
<path d="M0 0 C1.9375 0.75 1.9375 0.75 4 2 C4.75 4.125 4.75 4.125 5 6 C4.01 6.33 3.02 6.66 2 7 C0.68 5.35 -0.64 3.7 -2 2 C-1.34 1.34 -0.68 0.68 0 0 Z " fill="#55C6FE" transform="translate(291,425)"/>
<path d="M0 0 C0.66 0.33 1.32 0.66 2 1 C-0.64 3.64 -3.28 6.28 -6 9 C-6.33 8.34 -6.66 7.68 -7 7 C-4.78071806 4.09197539 -3.07030857 2.04687238 0 0 Z " fill="#AAAAAA" transform="translate(419,387)"/>
<path d="M0 0 C2.75383923 1.37691962 3.51483101 3.36720042 5 6 C1.75791433 5.64950425 0.38472296 5.43778819 -1.8125 2.9375 C-2.4003125 1.9784375 -2.4003125 1.9784375 -3 1 C-2.01 0.67 -1.02 0.34 0 0 Z " fill="#56C7FD" transform="translate(218,352)"/>
<path d="M0 0 C0.33 0.99 0.66 1.98 1 3 C-0.65 4.65 -2.3 6.3 -4 8 C-4 6.02 -4 4.04 -4 2 C-2.68 1.34 -1.36 0.68 0 0 Z " fill="#449464" transform="translate(239,440)"/>
<path d="M0 0 C0.93423645 3.01031744 1.04449911 3.86650268 0 7 C-1.65 5.02 -3.3 3.04 -5 1 C-3.35 0.67 -1.7 0.34 0 0 Z " fill="#418AB0" transform="translate(297,432)"/>
<path d="M0 0 C2.31 0 4.62 0 7 0 C7 0.99 7 1.98 7 3 C4.69 3 2.38 3 0 3 C0 2.01 0 1.02 0 0 Z " fill="#1FB682" transform="translate(182,426)"/>
<path d="M0 0 C0 3.16880694 -0.2058242 4.43689172 -2 7 C-4.625 7.75 -4.625 7.75 -7 8 C-6.02133662 6.85373678 -5.04205413 5.70800212 -4.0625 4.5625 C-3.51722656 3.92441406 -2.97195313 3.28632813 -2.41015625 2.62890625 C-1.63204305 1.73008851 -0.84063472 0.84063472 0 0 Z " fill="#458CAF" transform="translate(259,334)"/>
<path d="M0 0 C0.66 0 1.32 0 2 0 C2.33 0.99 2.66 1.98 3 3 C1.625 4.5 1.625 4.5 0 6 C-0.66 6 -1.32 6 -2 6 C-1.125 1.125 -1.125 1.125 0 0 Z " fill="#E1E43F" transform="translate(226,450)"/>
<path d="M0 0 C1.98 0.99 1.98 0.99 4 2 C4 2.66 4 3.32 4 4 C3.34 4 2.68 4 2 4 C1.67 5.65 1.34 7.3 1 9 C0.67 9 0.34 9 0 9 C0 6.03 0 3.06 0 0 Z " fill="#4FE6A7" transform="translate(236,446)"/>
<path d="M0 0 C0.33 1.32 0.66 2.64 1 4 C-0.98 5.32 -2.96 6.64 -5 8 C-5.66 7.67 -6.32 7.34 -7 7 C-4.69 4.69 -2.38 2.38 0 0 Z " fill="#348863" transform="translate(200,393)"/>
<path d="M0 0 C2.625 0.9375 2.625 0.9375 5 2 C5 2.99 5 3.98 5 5 C4.38125 4.649375 3.7625 4.29875 3.125 3.9375 C2.42375 3.628125 1.7225 3.31875 1 3 C0.01 3.495 0.01 3.495 -1 4 C-1.33 3.01 -1.66 2.02 -2 1 C-1.34 0.67 -0.68 0.34 0 0 Z " fill="#48AE81" transform="translate(259,444)"/>
<path d="M0 0 C1.67542976 0.28604898 3.34385343 0.61781233 5 1 C3.35 2.65 1.7 4.3 0 6 C-0.38218767 4.34385343 -0.71395102 2.67542976 -1 1 C-0.67 0.67 -0.34 0.34 0 0 Z " fill="#39B168" transform="translate(195,418)"/>
<path d="M0 0 C0.99 0.33 1.98 0.66 3 1 C2.34 1 1.68 1 1 1 C1 1.66 1 2.32 1 3 C-0.875 5.125 -0.875 5.125 -3 7 C-3.66 7 -4.32 7 -5 7 C-3.75023244 3.34683329 -3.32901247 2.21934164 0 0 Z " fill="#59E1A8" transform="translate(192,403)"/>
<path d="M0 0 C0.66 0 1.32 0 2 0 C0.60667426 3.36720387 -0.9789286 4.9859524 -4 7 C-3.67 5.35 -3.34 3.7 -3 2 C-2.01 2 -1.02 2 0 2 C0 1.34 0 0.68 0 0 Z " fill="#559CCE" transform="translate(317,385)"/>
<path d="M0 0 C1.98 0.99 1.98 0.99 4 2 C4 3.32 4 4.64 4 6 C3.01 6.495 3.01 6.495 2 7 C1.34 4.69 0.68 2.38 0 0 Z " fill="#419A75" transform="translate(298,458)"/>
<path d="M0 0 C0.66 0.33 1.32 0.66 2 1 C0.25 4.875 0.25 4.875 -2 6 C-2.33 4.35 -2.66 2.7 -3 1 C-2.01 0.67 -1.02 0.34 0 0 Z " fill="#3B82A4" transform="translate(323,438)"/>
<path d="M0 0 C1.98 0 3.96 0 6 0 C4.35 1.65 2.7 3.3 1 5 C0.67 3.35 0.34 1.7 0 0 Z " fill="#4591BA" transform="translate(294,406)"/>
<path d="M0 0 C1.485 0.99 1.485 0.99 3 2 C1.25 5.875 1.25 5.875 -1 7 C-0.67 4.69 -0.34 2.38 0 0 Z " fill="#3E8E6A" transform="translate(228,386)"/>
<path d="M0 0 C1.98 1.65 3.96 3.3 6 5 C3.50907189 6.24546405 2.58919267 5.7767578 0 5 C0 3.35 0 1.7 0 0 Z " fill="#3B9066" transform="translate(209,367)"/>
<path d="M0 0 C3.16115776 1.36983503 3.9927092 1.9890638 6 5 C5.01 5.495 5.01 5.495 4 6 C4 5.34 4 4.68 4 4 C2.68 4 1.36 4 0 4 C0 2.68 0 1.36 0 0 Z " fill="#4FBE8E" transform="translate(193,353)"/>
<path d="M0 0 C2.02054804 1.64169528 4.02043058 3.30911778 6 5 C6 5.33 6 5.66 6 6 C4.35 6 2.7 6 1 6 C0.67 4.02 0.34 2.04 0 0 Z " fill="#4289B0" transform="translate(214,330)"/>
<path d="" fill="#000000" transform="translate(0,0)"/>
<path d="" fill="#000000" transform="translate(0,0)"/>
<path d="" fill="#000000" transform="translate(0,0)"/>
</svg>
