<?xml version="1.0" encoding="UTF-8"?>
<svg version="1.1" xmlns="http://www.w3.org/2000/svg" width="396" height="147">
<path d="M0 0 C3.40805386 1.11110528 5.29778904 2.81842141 7.921875 5.24609375 C8.79328125 6.03757812 9.6646875 6.8290625 10.5625 7.64453125 C12.671875 9.87109375 12.671875 9.87109375 13.671875 12.87109375 C14.22230469 13.1340625 14.77273437 13.39703125 15.33984375 13.66796875 C18.85712735 15.48258073 21.2560981 18.29171128 23.984375 21.12109375 C29.17956114 26.43723493 29.17956114 26.43723493 34.734375 31.37109375 C37.51185044 33.73490264 39.75876018 35.76228216 41.671875 38.87109375 C41.69890345 42.70237584 40.22563652 44.5921473 37.6875 47.24609375 C36.44233094 48.46476985 35.18670405 49.67283465 33.921875 50.87109375 C33.30054688 51.474375 32.67921875 52.07765625 32.0390625 52.69921875 C30.25604663 54.42957171 28.46439789 56.15060106 26.671875 57.87109375 C23.97419709 60.49425017 21.75878934 62.74072223 19.671875 65.87109375 C28.251875 65.87109375 36.831875 65.87109375 45.671875 65.87109375 C49.13579541 72.79893456 47.80654511 83.26971443 47.671875 90.87109375 C52.78992357 87.12923158 57.25447004 83.42666832 61.2734375 78.51953125 C63.55128752 75.83446782 65.74685528 73.86259654 68.671875 71.87109375 C73.37280637 72.04063554 75.36583477 74.16091826 78.484375 77.49609375 C81.51585881 80.65801233 84.52803874 83.71334741 87.859375 86.55859375 C91.65927405 89.81455563 95.17817355 93.29155197 98.671875 96.87109375 C101.09949497 99.3565142 103.42584513 101.6804206 106.171875 103.80859375 C109.23549393 106.33607937 111.39832356 108.59450491 113.671875 111.87109375 C113.85862175 115.60602883 112.59655735 116.97287436 110.359375 119.99609375 C105.14246324 125.5769761 105.14246324 125.5769761 100.859375 126.43359375 C96.40103233 125.6468274 93.62786403 123.2468682 90.671875 119.87109375 C90.671875 119.21109375 90.671875 118.55109375 90.671875 117.87109375 C90.011875 117.87109375 89.351875 117.87109375 88.671875 117.87109375 C87.26171875 116.4375 87.26171875 116.4375 85.609375 114.43359375 C81.55119134 109.64767674 77.15186569 105.25965605 72.671875 100.87109375 C68.93265371 102.45239995 66.37537763 104.80339773 63.421875 107.55859375 C59.46893267 111.22165364 55.46659812 114.78684991 51.3515625 118.265625 C49.69880891 119.84534994 48.64596941 121.39203718 47.421875 123.30859375 C44.1626993 126.34555293 43.01311141 126.34256222 38.671875 126.49609375 C34.78469566 126.30006134 32.91191336 126.00758615 29.484375 124.05859375 C26.25793418 120.16461345 26.53797618 116.38452582 26.57421875 111.578125 C26.5756337 110.87209641 26.57704865 110.16606781 26.57850647 109.43864441 C26.58409736 107.18691749 26.59664812 104.93529054 26.609375 102.68359375 C26.61439118 101.1556004 26.61895388 99.62760548 26.62304688 98.09960938 C26.6340638 94.3567324 26.65132213 90.61393002 26.671875 86.87109375 C25.69839111 86.85651123 24.72490723 86.84192871 23.72192383 86.8269043 C20.09672024 86.76876079 16.4721274 86.69152998 12.84741211 86.60864258 C11.28110699 86.57546843 9.71468449 86.54741317 8.14819336 86.5246582 C5.89125737 86.49097259 3.63538974 86.43865326 1.37890625 86.3828125 C0.33486382 86.37322762 0.33486382 86.37322762 -0.73027039 86.3634491 C-5.07534927 86.2331958 -7.85001739 85.4995008 -11.328125 82.87109375 C-14.21337816 78.63529656 -14.09009187 73.79747361 -13.328125 68.87109375 C-11.95618202 65.98950347 -10.518467 64.27003975 -8.328125 61.87109375 C-7.668125 61.87109375 -7.008125 61.87109375 -6.328125 61.87109375 C-5.9259375 60.91203125 -5.9259375 60.91203125 -5.515625 59.93359375 C-4.328125 57.87109375 -4.328125 57.87109375 -1.328125 56.87109375 C-0.64800242 55.54457368 0.01687815 54.21019843 0.671875 52.87109375 C2.4765625 51.08984375 2.4765625 51.08984375 4.546875 49.37109375 C5.25714844 48.7678125 5.96742187 48.16453125 6.69921875 47.54296875 C7.35019531 46.99125 8.00117188 46.43953125 8.671875 45.87109375 C11.94639462 42.87565142 11.94639462 42.87565142 13.671875 38.87109375 C13.08277344 38.59910156 12.49367188 38.32710937 11.88671875 38.046875 C5.28498154 34.54224908 0.0549134 28.34865918 -5.203125 23.12109375 C-5.77474365 22.55414795 -6.3463623 21.98720215 -6.93530273 21.40307617 C-9.33962659 18.98941793 -11.43265598 16.71429728 -13.328125 13.87109375 C-13.14898933 8.67615925 -8.31584706 4.83412275 -4.828125 1.43359375 C-2.328125 -0.12890625 -2.328125 -0.12890625 0 0 Z " fill="#53D99F" transform="translate(16.328125,21.12890625)"/>
<path d="M0 0 C4.23727864 0.55406347 5.55312256 2.07432092 8.4987793 5.1262207 C8.97148758 5.60741867 9.44419586 6.08861664 9.93122864 6.58439636 C11.43331641 8.11993806 12.91319927 9.67498332 14.39331055 11.23168945 C15.39906476 12.26756285 16.40621362 13.30208409 17.41479492 14.33520508 C19.2657735 16.23508691 21.10604542 18.14346214 22.94091797 20.05908203 C24.67649341 21.86762012 26.4237393 23.6567935 28.20581055 25.41918945 C31.341894 24.05773638 33.12034505 22.62407156 35.26831055 19.98168945 C51.20123179 1.23909177 51.20123179 1.23909177 60.1237793 0.02075195 C68.15694697 -0.39020181 68.15694697 -0.39020181 71.85449219 2.46313477 C74.77953881 6.14047508 74.85573882 8.84815546 74.6940918 13.3449707 C74.68701706 14.09256149 74.67994232 14.84015228 74.6726532 15.61039734 C74.64478699 17.98520348 74.58207186 20.35760296 74.51831055 22.73168945 C74.49321723 24.34688964 74.47040586 25.96212699 74.44995117 27.57739258 C74.39498702 31.52557765 74.30877581 35.47197634 74.20581055 39.41918945 C75.2095874 39.39824219 76.21336426 39.37729492 77.24755859 39.35571289 C80.98406621 39.28312251 84.72051192 39.23732134 88.45751953 39.19946289 C90.07253513 39.17939053 91.68747844 39.15212615 93.30224609 39.11743164 C95.62835556 39.06871731 97.95350148 39.04617791 100.2800293 39.02856445 C100.99793137 39.00791931 101.71583344 38.98727417 102.45549011 38.96600342 C106.10394356 38.96438319 108.03907093 39.30958537 111.11914062 41.33422852 C114.531457 44.7437502 115.11632878 46.47963088 115.58081055 51.35668945 C115.45682412 55.54123135 114.24608939 57.45891795 111.20581055 60.41918945 C109.22320629 62.10651223 107.22257634 63.77285003 105.20581055 65.41918945 C103.5225062 67.06905067 101.85775053 68.73792509 100.20581055 70.41918945 C99.32280273 71.31637695 98.43979492 72.21356445 97.5300293 73.13793945 C96.22485352 74.5146582 96.22485352 74.5146582 94.89331055 75.91918945 C94.01030273 76.83700195 93.12729492 77.75481445 92.2175293 78.70043945 C89.93276278 81.78820158 89.68061622 82.69641665 90.20581055 86.41918945 C91.80917828 88.72622824 91.80917828 88.72622824 94.07299805 90.80981445 C94.87608398 91.60129883 95.67916992 92.3927832 96.5065918 93.20825195 C97.78083008 94.42641602 97.78083008 94.42641602 99.08081055 95.66918945 C99.92256836 96.49676758 100.76432617 97.3243457 101.6315918 98.17700195 C105.56940748 102.26808157 105.56940748 102.26808157 110.20581055 105.41918945 C110.20581055 106.07918945 110.20581055 106.73918945 110.20581055 107.41918945 C111.69081055 107.91418945 111.69081055 107.91418945 113.20581055 108.41918945 C113.20581055 109.07918945 113.20581055 109.73918945 113.20581055 110.41918945 C113.86581055 110.41918945 114.52581055 110.41918945 115.20581055 110.41918945 C115.6173922 113.83470289 115.37795751 115.16565711 113.4128418 118.05981445 C112.62264648 118.9209082 111.83245117 119.78200195 111.01831055 120.66918945 C110.24100586 121.5405957 109.46370117 122.41200195 108.6628418 123.30981445 C106.01111275 125.5863386 104.68050369 126.34110646 101.20581055 126.41918945 C92.48819164 122.3438798 85.32151408 112.83185384 79.15893555 105.66137695 C76.67616252 102.81115352 74.13353706 100.01923271 71.58081055 97.23168945 C71.12528809 96.73241943 70.66976562 96.23314941 70.20043945 95.71875 C67.99475371 93.31425652 65.75469055 90.97378788 63.43237305 88.6809082 C60.20581055 85.40339998 60.20581055 85.40339998 60.20581055 82.41918945 C62.66090716 77.30440484 66.70084483 73.69998459 70.70581055 69.79418945 C71.38256836 69.12645508 72.05932617 68.4587207 72.7565918 67.77075195 C74.01407006 66.53063532 75.27360008 65.29259302 76.53588867 64.05737305 C78.10206042 62.52096772 79.65445062 60.97054938 81.20581055 59.41918945 C72.29581055 59.08918945 63.38581055 58.75918945 54.20581055 58.41918945 C53.87581055 49.50918945 53.54581055 40.59918945 53.20581055 31.41918945 C46.59779821 37.87701969 40.42538174 43.96103616 35.11987305 51.5559082 C32.53771305 54.06956191 30.77296488 54.35450013 27.20581055 54.41918945 C25.08862305 53.2746582 25.08862305 53.2746582 23.33081055 51.60668945 C22.73526367 51.06399414 22.1397168 50.52129883 21.52612305 49.9621582 C20.20581055 48.41918945 20.20581055 48.41918945 20.20581055 46.41918945 C19.62959961 46.17942383 19.05338867 45.9396582 18.4597168 45.69262695 C15.74831098 44.16070616 14.18139173 42.39845893 12.14331055 40.04418945 C11.36084961 39.15473633 10.57838867 38.2652832 9.7722168 37.34887695 C8.92530273 36.38208008 8.07838867 35.4152832 7.20581055 34.41918945 C5.34254706 32.32508502 3.46593009 30.24363141 1.58081055 28.16918945 C1.11682861 27.65686768 0.65284668 27.1445459 0.17480469 26.61669922 C-2.37305231 23.84087845 -4.97426775 21.32917827 -7.91918945 18.98168945 C-10.79418945 16.41918945 -10.79418945 16.41918945 -11.6809082 14.05200195 C-11.83255898 10.52742882 -10.73343897 9.38956613 -8.48168945 6.73168945 C-7.52842773 5.58120117 -7.52842773 5.58120117 -6.5559082 4.4074707 C-3.05702527 0.45862057 -3.05702527 0.45862057 0 0 Z " fill="#9670FA" transform="translate(36.794189453125,-0.419189453125)"/>
<path d="M0 0 C3.4994848 1.11094756 5.02087254 2.81214227 7.51953125 5.484375 C10.55101506 8.64629358 13.56319499 11.70162866 16.89453125 14.546875 C20.6944303 17.80283688 24.2133298 21.27983322 27.70703125 24.859375 C30.13465122 27.34479545 32.46100138 29.66870185 35.20703125 31.796875 C38.27065018 34.32436062 40.43347981 36.58278616 42.70703125 39.859375 C42.893778 43.59431008 41.6317136 44.96115561 39.39453125 47.984375 C34.17761949 53.56525735 34.17761949 53.56525735 29.89453125 54.421875 C25.43618858 53.63510865 22.66302028 51.23514945 19.70703125 47.859375 C19.70703125 47.199375 19.70703125 46.539375 19.70703125 45.859375 C19.04703125 45.859375 18.38703125 45.859375 17.70703125 45.859375 C16.296875 44.42578125 16.296875 44.42578125 14.64453125 42.421875 C10.58634759 37.63595799 6.18702194 33.2479373 1.70703125 28.859375 C-2.03219004 30.4406812 -4.58946612 32.79167898 -7.54296875 35.546875 C-11.49591108 39.20993489 -15.49824563 42.77513116 -19.61328125 46.25390625 C-21.26603484 47.83363119 -22.31887434 49.38031843 -23.54296875 51.296875 C-26.80214445 54.33383418 -27.95173234 54.33084347 -32.29296875 54.484375 C-36.33235155 54.29533984 -38.03845514 54.01599876 -41.54296875 51.859375 C-42.12046875 51.199375 -42.69796875 50.539375 -43.29296875 49.859375 C-42.68585394 45.73099432 -41.41774558 42.45515118 -39.29296875 38.859375 C-37.80796875 38.364375 -37.80796875 38.364375 -36.29296875 37.859375 C-36.29296875 37.199375 -36.29296875 36.539375 -36.29296875 35.859375 C-34.80796875 35.364375 -34.80796875 35.364375 -33.29296875 34.859375 C-31.21590393 32.07766604 -31.21590393 32.07766604 -29.29296875 28.859375 C-28.45765625 27.5290625 -28.45765625 27.5290625 -27.60546875 26.171875 C-26.17295772 23.82143603 -26.17295772 23.82143603 -25.29296875 20.859375 C-24.37644531 20.40304688 -23.45992187 19.94671875 -22.515625 19.4765625 C-19.01543753 17.72010479 -17.24962547 15.94967933 -14.73046875 12.984375 C-13.96347656 12.09878906 -13.19648437 11.21320313 -12.40625 10.30078125 C-11.70886719 9.49511719 -11.01148438 8.68945312 -10.29296875 7.859375 C-8.6622969 6.14817614 -6.98964831 4.50615222 -5.29296875 2.859375 C-4.79796875 2.240625 -4.30296875 1.621875 -3.79296875 0.984375 C-2.29296875 -0.140625 -2.29296875 -0.140625 0 0 Z " fill="#55DAA0" transform="translate(87.29296875,93.140625)"/>
<path d="M0 0 C1.52367187 0.0009668 1.52367187 0.0009668 3.078125 0.00195312 C4.13257813 0.01806641 5.18703125 0.03417969 6.2734375 0.05078125 C7.86671875 0.04594727 7.86671875 0.04594727 9.4921875 0.04101562 C17.38137612 0.09621987 17.38137612 0.09621987 19.6484375 2.36328125 C18.24869792 3.50260417 16.84895833 4.64192708 15.44921875 5.78125 C13.07031281 7.87117821 10.86919623 10.10617081 8.6484375 12.36328125 C7.76542969 13.26046875 6.88242188 14.15765625 5.97265625 15.08203125 C5.10253906 15.99984375 4.23242188 16.91765625 3.3359375 17.86328125 C2.45292969 18.78109375 1.56992188 19.69890625 0.66015625 20.64453125 C-1.62461026 23.73229337 -1.87675683 24.64050845 -1.3515625 28.36328125 C0.25180524 30.67032004 0.25180524 30.67032004 2.515625 32.75390625 C3.31871094 33.54539063 4.12179688 34.336875 4.94921875 35.15234375 C5.79871094 35.96445313 6.64820313 36.7765625 7.5234375 37.61328125 C8.36519531 38.44085938 9.20695312 39.2684375 10.07421875 40.12109375 C14.01203443 44.21217337 14.01203443 44.21217337 18.6484375 47.36328125 C18.6484375 48.02328125 18.6484375 48.68328125 18.6484375 49.36328125 C19.6384375 49.69328125 20.6284375 50.02328125 21.6484375 50.36328125 C21.6484375 51.02328125 21.6484375 51.68328125 21.6484375 52.36328125 C22.3084375 52.36328125 22.9684375 52.36328125 23.6484375 52.36328125 C24.06001916 55.77879469 23.82058446 57.1097489 21.85546875 60.00390625 C21.06527344 60.865 20.27507812 61.72609375 19.4609375 62.61328125 C18.68363281 63.4846875 17.90632813 64.35609375 17.10546875 65.25390625 C14.4537397 67.53043039 13.12313065 68.28519826 9.6484375 68.36328125 C0.93081859 64.2879716 -6.23585897 54.77594564 -12.3984375 47.60546875 C-14.88121053 44.75524531 -17.42383598 41.96332451 -19.9765625 39.17578125 C-20.43208496 38.67651123 -20.88760742 38.17724121 -21.35693359 37.6628418 C-23.56261934 35.25834832 -25.8026825 32.91787968 -28.125 30.625 C-31.3515625 27.34749178 -31.3515625 27.34749178 -31.3515625 24.36328125 C-28.896717 19.2683189 -24.89517632 15.64687238 -20.9140625 11.73828125 C-20.24568359 11.07054688 -19.57730469 10.4028125 -18.88867188 9.71484375 C-15.83583235 6.68923471 -12.83837689 3.88965288 -9.3515625 1.36328125 C-9.3515625 2.02328125 -9.3515625 2.68328125 -9.3515625 3.36328125 C-8.80193848 2.87577393 -8.25231445 2.3882666 -7.68603516 1.88598633 C-4.87827705 0.05457163 -3.32544211 -0.01066032 0 0 Z " fill="#59BFF4" transform="translate(128.3515625,57.63671875)"/>
<path d="M0 0 C4.23727864 0.55406347 5.55312256 2.07432092 8.4987793 5.1262207 C8.97148758 5.60741867 9.44419586 6.08861664 9.93122864 6.58439636 C11.43331641 8.11993806 12.91319927 9.67498332 14.39331055 11.23168945 C15.39906476 12.26756285 16.40621362 13.30208409 17.41479492 14.33520508 C19.2657735 16.23508691 21.10604542 18.14346214 22.94091797 20.05908203 C24.67649341 21.86762012 26.4237393 23.6567935 28.20581055 25.41918945 C31.341894 24.05773638 33.12034505 22.62407156 35.26831055 19.98168945 C38.31957232 16.38344122 41.5131064 12.95899371 44.83081055 9.60668945 C45.73057617 8.69274414 46.6303418 7.77879883 47.55737305 6.8371582 C53.49175562 1.41918945 53.49175562 1.41918945 57.20581055 1.41918945 C57.04516113 1.97550049 56.88451172 2.53181152 56.71899414 3.10498047 C56.16441653 5.60585636 56.04662197 7.88638556 55.99487305 10.4465332 C55.96651367 11.40366211 55.9381543 12.36079102 55.90893555 13.34692383 C55.85695842 15.3493428 55.81265548 17.35197605 55.77612305 19.35473633 C55.49621547 28.02603967 53.31238926 31.59668764 47.01831055 37.60668945 C42.54016437 41.92106428 38.73862262 46.4151381 35.1550293 51.52075195 C32.55119873 54.05674725 30.80579181 54.35848938 27.20581055 54.41918945 C25.08862305 53.2746582 25.08862305 53.2746582 23.33081055 51.60668945 C22.73526367 51.06399414 22.1397168 50.52129883 21.52612305 49.9621582 C20.20581055 48.41918945 20.20581055 48.41918945 20.20581055 46.41918945 C19.62959961 46.17942383 19.05338867 45.9396582 18.4597168 45.69262695 C15.74831098 44.16070616 14.18139173 42.39845893 12.14331055 40.04418945 C11.36084961 39.15473633 10.57838867 38.2652832 9.7722168 37.34887695 C8.92530273 36.38208008 8.07838867 35.4152832 7.20581055 34.41918945 C5.34254706 32.32508502 3.46593009 30.24363141 1.58081055 28.16918945 C1.11682861 27.65686768 0.65284668 27.1445459 0.17480469 26.61669922 C-2.37305231 23.84087845 -4.97426775 21.32917827 -7.91918945 18.98168945 C-10.79418945 16.41918945 -10.79418945 16.41918945 -11.6809082 14.05200195 C-11.83255898 10.52742882 -10.73343897 9.38956613 -8.48168945 6.73168945 C-7.52842773 5.58120117 -7.52842773 5.58120117 -6.5559082 4.4074707 C-3.05702527 0.45862057 -3.05702527 0.45862057 0 0 Z " fill="#57BFF5" transform="translate(36.794189453125,-0.419189453125)"/>
<path d="M0 0 C1.45823212 -0.0270043 2.91660675 -0.04639787 4.375 -0.0625 C5.18710937 -0.07410156 5.99921875 -0.08570313 6.8359375 -0.09765625 C9 0 9 0 11 1 C11 3.97 11 6.94 11 10 C12.65 10 14.3 10 16 10 C16 13.3 16 16.6 16 20 C14.68 20 13.36 20 12 20 C12 26.27 12 32.54 12 39 C13.32 39.33 14.64 39.66 16 40 C16 43.63 16 47.26 16 51 C10.64041177 51.18805573 5.98507268 51.24817003 1 49 C-2.53478771 42.97776909 -2.36121387 37.40860797 -2.1875 30.5625 C-2.16719727 29.03592773 -2.16719727 29.03592773 -2.14648438 27.47851562 C-2.1113661 24.98511786 -2.06218559 22.49284488 -2 20 C-2.61875 19.896875 -3.2375 19.79375 -3.875 19.6875 C-6 19 -6 19 -8 16 C-8.01981934 16.95890137 -8.03963867 17.91780273 -8.06005859 18.90576172 C-8.13604145 22.45811553 -8.2247693 26.01005576 -8.31738281 29.56201172 C-8.35570301 31.10034021 -8.39055056 32.63875925 -8.421875 34.17724609 C-8.46746059 36.38672276 -8.5254634 38.59557448 -8.5859375 40.8046875 C-8.60326431 41.83914505 -8.60326431 41.83914505 -8.62094116 42.89450073 C-8.77225659 47.77225659 -8.77225659 47.77225659 -11 50 C-13.09375 50.30078125 -13.09375 50.30078125 -15.5 50.3125 C-16.2940625 50.32925781 -17.088125 50.34601563 -17.90625 50.36328125 C-18.5971875 50.24339844 -19.288125 50.12351563 -20 50 C-22.39028321 46.41457519 -22.30624779 43.80661434 -22.30078125 39.6640625 C-22.30506638 38.94769623 -22.3093515 38.23132996 -22.31376648 37.49325562 C-22.31950519 35.9785874 -22.3200134 34.46389162 -22.31567383 32.94921875 C-22.31252068 30.64014193 -22.33595269 28.3323553 -22.36132812 26.0234375 C-22.36360198 24.54948078 -22.36430421 23.07552062 -22.36328125 21.6015625 C-22.372491 20.91494537 -22.38170074 20.22832825 -22.39118958 19.52090454 C-22.34958294 15.17491172 -21.56207362 12.51178956 -19 9 C-11.25 9.875 -11.25 9.875 -9 11 C-9 11.66 -9 12.32 -9 13 C-4.50396831 10.70202825 -2.71255912 9.12004852 -1.125 4.25 C-0.72902442 2.83905252 -0.34682928 1.42382545 0 0 Z " fill="#E6E6E6" transform="translate(380,49)"/>
<path d="M0 0 C5.14505988 3.58957666 8.3602381 7.72133121 9.6875 13.875 C9.92775464 16.89607428 10.0966554 19.86650442 9.6875 22.875 C7.6875 24.875 7.6875 24.875 5.53271484 25.10205078 C4.66340332 25.09157715 3.7940918 25.08110352 2.8984375 25.0703125 C1.95742188 25.06386719 1.01640625 25.05742188 0.046875 25.05078125 C-0.93796875 25.03402344 -1.9228125 25.01726562 -2.9375 25 C-3.93007813 24.99097656 -4.92265625 24.98195313 -5.9453125 24.97265625 C-8.40128134 24.94904116 -10.85677168 24.91610799 -13.3125 24.875 C-12.9825 26.195 -12.6525 27.515 -12.3125 28.875 C-3.77598556 28.16916478 -3.77598556 28.16916478 4.6875 26.875 C6.77239627 29.12668797 7.6875 30.25236425 7.6875 33.375 C6.36780211 36.67424472 4.61415733 37.92389511 1.6875 39.875 C-4.4513636 41.92128787 -11.81266765 41.98071965 -17.75 39.25 C-22.37031311 36.5451917 -25.6002189 33.0118433 -27.3125 27.875 C-28.50959672 11.33151586 -28.50959672 11.33151586 -23.3125 4.875 C-17.02200892 -1.80233947 -8.5746378 -2.91214114 0 0 Z M-14.3125 11.875 C-14.3125 12.865 -14.3125 13.855 -14.3125 14.875 C-11.79196405 16.13526798 -10.4582902 15.79374445 -7.6875 15.4375 C-6.87023437 15.33566406 -6.05296875 15.23382813 -5.2109375 15.12890625 C-4.58445312 15.04511719 -3.95796875 14.96132812 -3.3125 14.875 C-3.58867533 12.93425139 -3.58867533 12.93425139 -4.3125 10.875 C-8.64872387 7.98418409 -10.62172313 8.43875946 -14.3125 11.875 Z " fill="#E4E4E4" transform="translate(263.3125,59.125)"/>
<path d="M0 0 C1.29550781 0.00322266 2.59101562 0.00644531 3.92578125 0.00976562 C5.28906317 0.01812027 6.65234442 0.02658521 8.015625 0.03515625 C9.39452965 0.04017457 10.77343604 0.0447369 12.15234375 0.04882812 C15.52348159 0.06061532 18.89453128 0.0770699 22.265625 0.09765625 C23.40215689 12.72123256 23.40215689 12.72123256 23.328125 18.34765625 C23.31910156 19.2603125 23.31007812 20.17296875 23.30078125 21.11328125 C23.28917969 21.768125 23.27757812 22.42296875 23.265625 23.09765625 C24.585625 22.10765625 25.905625 21.11765625 27.265625 20.09765625 C27.925625 20.42765625 28.585625 20.75765625 29.265625 21.09765625 C26.87053162 23.99697982 24.95317257 24.59933901 21.265625 25.09765625 C21.1728125 26.39703125 21.1728125 26.39703125 21.078125 27.72265625 C20.02517382 32.09645347 18.28017379 33.78900514 15.265625 37.09765625 C14.605625 38.08765625 13.945625 39.07765625 13.265625 40.09765625 C12.275625 40.09765625 11.285625 40.09765625 10.265625 40.09765625 C10.265625 40.75765625 10.265625 41.41765625 10.265625 42.09765625 C9.275625 42.75765625 8.285625 43.41765625 7.265625 44.09765625 C6.24939842 46.08946034 5.24849508 48.0891826 4.265625 50.09765625 C3.275625 50.59265625 3.275625 50.59265625 2.265625 51.09765625 C2.265625 40.53765625 2.265625 29.97765625 2.265625 19.09765625 C-8.624375 18.76765625 -19.514375 18.43765625 -30.734375 18.09765625 C-30.734375 17.76765625 -30.734375 17.43765625 -30.734375 17.09765625 C-26.774375 16.60265625 -26.774375 16.60265625 -22.734375 16.09765625 C-22.610625 15.45828125 -22.486875 14.81890625 -22.359375 14.16015625 C-22.153125 13.47953125 -21.946875 12.79890625 -21.734375 12.09765625 C-21.074375 11.76765625 -20.414375 11.43765625 -19.734375 11.09765625 C-19.321875 10.35515625 -18.909375 9.61265625 -18.484375 8.84765625 C-16.14046154 5.16436366 -13.19482975 1.9794436 -8.96386719 0.46313477 C-5.95415355 -0.0302447 -3.0497426 -0.01337606 0 0 Z " fill="#F0DF34" transform="translate(40.734375,88.90234375)"/>
<path d="M0 0 C0.87694016 -0.0033284 1.75388031 -0.0066568 2.65739441 -0.01008606 C4.51776605 -0.01516015 6.37814683 -0.01749424 8.23852539 -0.01733398 C11.08299863 -0.01951403 13.92708017 -0.03764668 16.77148438 -0.05664062 C18.57682159 -0.05957574 20.38216065 -0.06155975 22.1875 -0.0625 C23.03866898 -0.06968552 23.88983795 -0.07687103 24.76679993 -0.08427429 C25.56410019 -0.08119766 26.36140045 -0.07812103 27.18286133 -0.07495117 C28.23090691 -0.0770887 28.23090691 -0.0770887 29.30012512 -0.07926941 C31.63109357 0.20991753 33.26010014 1.01944968 35.29296875 2.16796875 C35.60629215 5.61452614 35.7765331 7.50425298 33.69921875 10.35546875 C30.49619912 12.76813289 28.50517597 12.57645704 24.54296875 12.41796875 C23.3725 12.381875 22.20203125 12.34578125 20.99609375 12.30859375 C20.1040625 12.2621875 19.21203125 12.21578125 18.29296875 12.16796875 C18.3086792 13.33368408 18.32438965 14.49939941 18.34057617 15.70043945 C18.39484409 20.02214661 18.42930734 24.3438236 18.45776367 28.66577148 C18.47285748 30.53691674 18.49333464 32.40802658 18.51928711 34.27905273 C18.55564468 36.96737401 18.5726889 39.65522788 18.5859375 42.34375 C18.60142136 43.18134354 18.61690521 44.01893707 18.63285828 44.88191223 C18.63455772 50.73625484 18.63455772 50.73625484 16.92671204 52.8946991 C14.62308662 54.69004623 12.98256567 54.46756344 10.10546875 54.35546875 C9.20441406 54.32839844 8.30335938 54.30132812 7.375 54.2734375 C6.68792969 54.23863281 6.00085938 54.20382813 5.29296875 54.16796875 C3.6271925 50.83641624 4.17289019 47.10260816 4.1953125 43.44140625 C4.19672745 42.57859039 4.1981424 41.71577454 4.19960022 40.82681274 C4.20520687 38.06549645 4.21776048 35.30426063 4.23046875 32.54296875 C4.23548289 30.67317825 4.24004595 28.80338649 4.24414062 26.93359375 C4.25517846 22.34502098 4.27244755 17.75650852 4.29296875 13.16796875 C-2.63703125 12.67296875 -2.63703125 12.67296875 -9.70703125 12.16796875 C-9.8046875 3.671875 -9.8046875 3.671875 -9.70703125 1.16796875 C-7.59650198 -0.94256052 -2.91833733 0.00378842 0 0 Z " fill="#E0E0E0" transform="translate(320.70703125,44.83203125)"/>
<path d="M0 0 C0.88022827 0.00404846 1.76045654 0.00809692 2.6673584 0.01226807 C4.0210553 0.00939789 4.0210553 0.00939789 5.40209961 0.00646973 C7.31197386 0.00510748 9.22185736 0.00880669 11.13171387 0.01715088 C14.0617749 0.02784986 16.99122278 0.01725696 19.92126465 0.00445557 C21.77413059 0.00577715 23.62699615 0.00833953 25.4798584 0.01226807 C26.80020081 0.00619537 26.80020081 0.00619537 28.1472168 0 C34.3436918 0.04797647 34.3436918 0.04797647 36.5736084 2.27789307 C36.87438965 4.15289307 36.87438965 4.15289307 36.8861084 6.27789307 C36.90286621 6.97914307 36.91962402 7.68039307 36.93688965 8.40289307 C36.81700684 9.02164307 36.69712402 9.64039307 36.5736084 10.27789307 C32.94165343 12.69919638 31.19011492 12.48812092 26.8861084 12.40289307 C25.70661621 12.38484619 24.52712402 12.36679932 23.31188965 12.34820557 C22.40825684 12.32500244 21.50462402 12.30179932 20.5736084 12.27789307 C20.58931885 13.47913818 20.6050293 14.6803833 20.62121582 15.91802979 C20.67541725 20.36457645 20.70992266 24.8110938 20.73840332 29.25787354 C20.75351235 31.18435573 20.77400054 33.11080342 20.79992676 35.03717041 C20.83621764 37.80239363 20.85331319 40.56716311 20.86657715 43.33258057 C20.882061 44.19720917 20.89754486 45.06183777 20.91349792 45.95266724 C20.91418457 48.37896729 20.91418457 48.37896729 20.5736084 52.27789307 C16.50511431 54.99022246 14.40884056 54.58489193 9.5736084 54.27789307 C6.48717066 51.19145533 7.21495831 47.4802989 7.1595459 43.33258057 C7.14017975 42.44756866 7.1208136 41.56255676 7.1008606 40.65072632 C7.04098117 37.81821391 6.99464627 34.98566103 6.9486084 32.15289307 C6.91043629 30.23490639 6.87138502 28.31693699 6.8314209 26.39898682 C6.73527285 21.69209559 6.65127297 16.9851241 6.5736084 12.27789307 C5.65837402 12.30109619 4.74313965 12.32429932 3.8001709 12.34820557 C2.01739746 12.37527588 2.01739746 12.37527588 0.1986084 12.40289307 C-1.57643066 12.43769775 -1.57643066 12.43769775 -3.3873291 12.47320557 C-6.4263916 12.27789307 -6.4263916 12.27789307 -8.4263916 10.27789307 C-8.6920166 8.40289307 -8.6920166 8.40289307 -8.6763916 6.27789307 C-8.68154785 5.57664307 -8.6867041 4.87539307 -8.6920166 4.15289307 C-7.99551727 -0.76357278 -4.03405716 0.03123386 0 0 Z " fill="#E8E8E8" transform="translate(201.4263916015625,44.72210693359375)"/>
<path d="M0 0 C2.52623682 1.9100815 3.60686774 3.21373547 5 6 C5.66 6 6.32 6 7 6 C7.474375 5.195625 7.94875 4.39125 8.4375 3.5625 C10 1 10 1 13 0 C14.72795352 -0.06802967 16.45835365 -0.08495645 18.1875 -0.0625 C19.08855469 -0.05347656 19.98960937 -0.04445312 20.91796875 -0.03515625 C21.60503906 -0.02355469 22.29210937 -0.01195312 23 0 C22.7102905 5.50448059 20.29005236 9.13410189 17.375 13.6328125 C16.05571097 15.90408851 15.2290604 17.39380168 15 20 C15.8195362 22.44179869 15.8195362 22.44179869 17.1875 24.875 C17.64769531 25.7515625 18.10789062 26.628125 18.58203125 27.53125 C19.75822593 29.57906003 20.98885501 31.46844268 22.375 33.375 C24 36 24 36 23.6015625 38.1640625 C23.40304687 38.76992187 23.20453125 39.37578125 23 40 C13.33196511 40.91431503 13.33196511 40.91431503 10.15625 38.734375 C8.36015539 36.58323843 7 34.87519213 7 32 C6.34 32 5.68 32 5 32 C4.731875 32.763125 4.46375 33.52625 4.1875 34.3125 C2.99316688 37.01546444 2.32871001 38.24325386 0 40 C-2.69921875 40.29296875 -2.69921875 40.29296875 -5.6875 40.1875 C-6.68136719 40.16042969 -7.67523438 40.13335937 -8.69921875 40.10546875 C-9.45847656 40.07066406 -10.21773438 40.03585938 -11 40 C-11.7109375 37.82421875 -11.7109375 37.82421875 -12 35 C-10.6015625 32.39453125 -10.6015625 32.39453125 -8.625 29.8125 C-7.97789062 28.95269531 -7.33078125 28.09289062 -6.6640625 27.20703125 C-6.11492187 26.47871094 -5.56578125 25.75039062 -5 25 C-3.57801752 22.15603503 -3.72923309 20.1614897 -4 17 C-5.44535484 13.98621919 -5.44535484 13.98621919 -7.4375 11.1875 C-8.07558594 10.23230469 -8.71367187 9.27710937 -9.37109375 8.29296875 C-10.80502841 6.13932278 -10.80502841 6.13932278 -12 5 C-12.04063832 3.33382885 -12.042721 1.66611905 -12 0 C-8.29833347 -1.85083327 -3.94315864 -0.84086743 0 0 Z " fill="#EAEAEA" transform="translate(286,59)"/>
<path d="M0 0 C1.89382164 -0.13592021 3.79049704 -0.2324094 5.6875 -0.3125 C6.74324219 -0.37050781 7.79898438 -0.42851563 8.88671875 -0.48828125 C13.13506787 0.17802194 14.35885667 1.64777962 17 5 C17.43948867 7.85601476 17.59019987 10.09053457 17.48828125 12.92578125 C17.48120651 13.67337204 17.47413177 14.42096283 17.46684265 15.19120789 C17.43897645 17.56601402 17.37626132 19.93841351 17.3125 22.3125 C17.28740668 23.92770018 17.26459531 25.54293754 17.24414062 27.15820312 C17.18917647 31.10638819 17.10296527 35.05278689 17 39 C18.00377686 38.97905273 19.00755371 38.95810547 20.04174805 38.93652344 C23.77825566 38.86393306 27.51470137 38.81813189 31.25170898 38.78027344 C32.86672458 38.76020108 34.48166789 38.7329367 36.09643555 38.69824219 C38.42254501 38.64952785 40.74769093 38.62698846 43.07421875 38.609375 C43.79212082 38.58872986 44.51002289 38.56808472 45.24967957 38.54681396 C48.89813301 38.54519374 50.83326038 38.89039591 53.91333008 40.91503906 C57.77918134 44.77772419 58.22864724 47.69749114 58.36328125 53 C57.86450345 55.74595947 56.94734152 57.00142627 55 59 C52.36450195 59.36230469 52.36450195 59.36230469 49.23828125 59.171875 C48.12001953 59.11386719 47.00175781 59.05585937 45.84960938 58.99609375 C44.68236328 58.91488281 43.51511719 58.83367188 42.3125 58.75 C41.13365234 58.68425781 39.95480469 58.61851563 38.74023438 58.55078125 C35.82522994 58.38555833 32.91270306 58.20124706 30 58 C32.45328076 52.71081672 35.8312084 49.5843958 41 47 C41.33 46.01 41.66 45.02 42 44 C35.99912756 43.17349095 30.04917946 42.7209101 24 42.4375 C23.12988281 42.39431641 22.25976562 42.35113281 21.36328125 42.30664062 C19.24231781 42.20175782 17.12117567 42.10049925 15 42 C12.93810069 36.08218663 12.75832162 30.79581786 12.875 24.5625 C12.88402344 23.64017578 12.89304687 22.71785156 12.90234375 21.76757812 C12.9257234 19.51144191 12.95849084 17.25586316 13 15 C9.43653204 17.26267756 6.36541362 19.34798441 3.6875 22.625 C3.19636719 23.21539063 2.70523438 23.80578125 2.19921875 24.4140625 C0.13214833 27.14771263 -0.22628698 29.26286982 -0.5625 32.625 C-0.64628906 33.44226562 -0.73007813 34.25953125 -0.81640625 35.1015625 C-0.87699219 35.72804687 -0.93757813 36.35453125 -1 37 C-3 35 -3 35 -3.16699219 32.09838867 C-3.12735352 30.8838501 -3.08771484 29.66931152 -3.046875 28.41796875 C-3.02659241 27.76677567 -3.00630981 27.11558258 -2.9854126 26.44465637 C-2.93981022 25.06506073 -2.88903131 23.685628 -2.83349609 22.30639648 C-2.75074605 20.20643255 -2.68860993 18.10659026 -2.62890625 16.00585938 C-2.58197213 14.66401845 -2.5338334 13.32221901 -2.484375 11.98046875 C-2.44022461 10.76254639 -2.39607422 9.54462402 -2.35058594 8.28979492 C-2.01575246 5.14781648 -1.33619281 2.84361477 0 0 Z " fill="#5F4DD3" transform="translate(94,0)"/>
<path d="M0 0 C7.75 0.875 7.75 0.875 10 2 C10 2.66 10 3.32 10 4 C10.99 3.67 11.98 3.34 13 3 C13 4.98 13 6.96 13 9 C12.34 8.34 11.68 7.68 11 7 C10.98018066 7.95890137 10.96036133 8.91780273 10.93994141 9.90576172 C10.86395855 13.45811553 10.7752307 17.01005576 10.68261719 20.56201172 C10.64429699 22.10034021 10.60944944 23.63875925 10.578125 25.17724609 C10.53253941 27.38672276 10.4745366 29.59557448 10.4140625 31.8046875 C10.39673569 32.83914505 10.39673569 32.83914505 10.37905884 33.89450073 C10.22774341 38.77225659 10.22774341 38.77225659 8 41 C5.90625 41.30078125 5.90625 41.30078125 3.5 41.3125 C2.7059375 41.32925781 1.911875 41.34601563 1.09375 41.36328125 C0.4028125 41.24339844 -0.288125 41.12351563 -1 41 C-3.39028321 37.41457519 -3.30624779 34.80661434 -3.30078125 30.6640625 C-3.30506638 29.94769623 -3.3093515 29.23132996 -3.31376648 28.49325562 C-3.31950519 26.9785874 -3.3200134 25.46389162 -3.31567383 23.94921875 C-3.31252068 21.64014193 -3.33595269 19.3323553 -3.36132812 17.0234375 C-3.36360198 15.54948078 -3.36430421 14.07552062 -3.36328125 12.6015625 C-3.372491 11.91494537 -3.38170074 11.22832825 -3.39118958 10.52090454 C-3.34958294 6.17491172 -2.56207362 3.51178956 0 0 Z " fill="#ECECEC" transform="translate(361,58)"/>
<path d="M0 0 C1.91595968 -0.08133791 3.83291932 -0.13934367 5.75 -0.1875 C7.35101563 -0.23970703 7.35101563 -0.23970703 8.984375 -0.29296875 C12.52184119 0.05069701 13.60768198 0.38626531 16 3 C16.35542824 5.92502152 16.46653426 8.46785967 16.390625 11.38671875 C16.38496521 12.20372757 16.37930542 13.02073639 16.37347412 13.86250305 C16.35108697 16.47143203 16.30088846 19.07898636 16.25 21.6875 C16.22993792 23.45636037 16.21168664 25.22524227 16.1953125 26.99414062 C16.15461572 31.33038237 16.07633667 35.66365323 16 40 C25.24 40 34.48 40 44 40 C44 40.33 44 40.66 44 41 C34.43 41 24.86 41 15 41 C12.75 34.25 12.75 34.25 12.8046875 30.0390625 C12.81113281 29.15605469 12.81757812 28.27304687 12.82421875 27.36328125 C12.84097656 26.45964844 12.85773438 25.55601563 12.875 24.625 C12.88402344 23.69816406 12.89304687 22.77132813 12.90234375 21.81640625 C12.92577063 19.54399923 12.95857252 17.2721382 13 15 C9.43653204 17.26267756 6.36541362 19.34798441 3.6875 22.625 C3.19636719 23.21539063 2.70523438 23.80578125 2.19921875 24.4140625 C0.13214833 27.14771263 -0.22628698 29.26286982 -0.5625 32.625 C-0.64628906 33.44226562 -0.73007813 34.25953125 -0.81640625 35.1015625 C-0.87699219 35.72804687 -0.93757813 36.35453125 -1 37 C-3 35 -3 35 -3.16699219 32.09838867 C-3.12735352 30.8838501 -3.08771484 29.66931152 -3.046875 28.41796875 C-3.02659241 27.76677567 -3.00630981 27.11558258 -2.9854126 26.44465637 C-2.93981022 25.06506073 -2.88903131 23.685628 -2.83349609 22.30639648 C-2.75074605 20.20643255 -2.68860993 18.10659026 -2.62890625 16.00585938 C-2.58197213 14.66401845 -2.5338334 13.32221901 -2.484375 11.98046875 C-2.44022461 10.76254639 -2.39607422 9.54462402 -2.35058594 8.28979492 C-2.01575246 5.14781648 -1.33619281 2.84361477 0 0 Z " fill="#5C50BD" transform="translate(94,0)"/>
<path d="M0 0 C2.40444946 -0.36076355 2.40444946 -0.36076355 5.45947266 -0.34057617 C6.60050446 -0.34034958 7.74153625 -0.34012299 8.91714478 -0.33988953 C10.77186905 -0.31666374 10.77186905 -0.31666374 12.6640625 -0.29296875 C13.92640717 -0.28872391 15.18875183 -0.28447906 16.48934937 -0.28010559 C19.84661351 -0.26613137 23.20326932 -0.23917302 26.56036377 -0.20599365 C29.98550148 -0.17531352 33.41070201 -0.1616047 36.8359375 -0.14648438 C43.5574605 -0.11334641 50.27869511 -0.06309539 57 0 C57 0.66 57 1.32 57 2 C56.18845459 2.01458252 55.37690918 2.02916504 54.54077148 2.04418945 C50.83921807 2.11897632 47.13853621 2.21553761 43.4375 2.3125 C42.16068359 2.33505859 40.88386719 2.35761719 39.56835938 2.38085938 C31.78721404 2.60317781 25.83173932 2.78962381 19.6875 7.9375 C18.08644549 9.8943444 17.09234925 11.73727655 16 14 C15.01 14.495 15.01 14.495 14 15 C13.67 15.99 13.34 16.98 13 18 C21.58 18 30.16 18 39 18 C39 18.33 39 18.66 39 19 C33.94634708 19.09897181 28.89325976 19.17151603 23.83886719 19.21972656 C22.12001721 19.23982628 20.40123548 19.26711089 18.68261719 19.30175781 C16.21011511 19.35035034 13.7385179 19.37298435 11.265625 19.390625 C10.11540863 19.42159271 10.11540863 19.42159271 8.94195557 19.45318604 C5.37097583 19.45468355 3.4127208 19.31943572 0.54589844 17.10058594 C-1.82303765 13.88164625 -2.15843167 12.02160594 -2.1875 8.0625 C-2.20167969 7.18722656 -2.21585937 6.31195313 -2.23046875 5.41015625 C-2 3 -2 3 0 0 Z " fill="#3BA267" transform="translate(5,87)"/>
<path d="M0 0 C-0.33 1.65 -0.66 3.3 -1 5 C-1.99 5.33 -2.98 5.66 -4 6 C-3.98952637 6.77714355 -3.97905273 7.55428711 -3.96826172 8.35498047 C-3.92679718 11.861621 -3.90070422 15.36821006 -3.875 18.875 C-3.85824219 20.09832031 -3.84148438 21.32164062 -3.82421875 22.58203125 C-3.81777344 23.74863281 -3.81132813 24.91523438 -3.8046875 26.1171875 C-3.79421387 27.19597168 -3.78374023 28.27475586 -3.77294922 29.38623047 C-4 32 -4 32 -6 34 C-11.53038283 34.70253017 -16.43952039 34.96029515 -21.25 32 C-21.8275 31.34 -22.405 30.68 -23 30 C-22.39288519 25.87161932 -21.12477683 22.59577618 -19 19 C-18.01 18.67 -17.02 18.34 -16 18 C-16 17.34 -16 16.68 -16 16 C-15.01 15.67 -14.02 15.34 -13 15 C-10.92293518 12.21829104 -10.92293518 12.21829104 -9 9 C-8.1646875 7.6696875 -8.1646875 7.6696875 -7.3125 6.3125 C-5.87998897 3.96206103 -5.87998897 3.96206103 -5 1 C-3 0 -3 0 0 0 Z " fill="#25AE77" transform="translate(67,113)"/>
<path d="M0 0 C4.30077164 0.58599322 5.67224533 2.28756252 8.5859375 5.4375 C9.89691406 6.8296875 9.89691406 6.8296875 11.234375 8.25 C11.88664062 8.971875 12.53890625 9.69375 13.2109375 10.4375 C12.5509375 11.0975 11.8909375 11.7575 11.2109375 12.4375 C10.2209375 12.4375 9.2309375 12.4375 8.2109375 12.4375 C6.1484381 14.24972534 6.1484381 14.24972534 4.2109375 16.4375 C2.51997262 18.19350199 1.39645992 19.34473879 -0.7890625 20.4375 C0.97351649 24.80684056 3.53027233 26.02005716 7.53125 28.19140625 C8.08554687 28.60261719 8.63984375 29.01382812 9.2109375 29.4375 C9.2109375 30.4275 9.2109375 31.4175 9.2109375 32.4375 C9.8709375 32.7675 10.5309375 33.0975 11.2109375 33.4375 C10.8809375 34.7575 10.5509375 36.0775 10.2109375 37.4375 C9.78796387 36.97899658 9.36499023 36.52049316 8.92919922 36.0480957 C6.98523739 33.9451886 5.03564598 31.84757963 3.0859375 29.75 C2.42078125 29.02876953 1.755625 28.30753906 1.0703125 27.56445312 C-1.89110474 24.38528462 -4.76099824 21.37080221 -8.21875 18.73046875 C-10.7890625 16.4375 -10.7890625 16.4375 -11.87109375 13.91796875 C-11.76054385 10.57515021 -10.61999503 9.28002356 -8.4765625 6.75 C-7.52330078 5.59951172 -7.52330078 5.59951172 -6.55078125 4.42578125 C-3.05374864 0.4790194 -3.05374864 0.4790194 0 0 Z " fill="#59BFF4" transform="translate(36.7890625,-0.4375)"/>
<path d="M0 0 C2.45441352 2.22431225 4.74771616 4.57246641 7 7 C5.68 7.33 4.36 7.66 3 8 C3 8.66 3 9.32 3 10 C1.68 9.34 0.36 8.68 -1 8 C-3.91171789 11.66980204 -3.91171789 11.66980204 -5 16 C-4.34 16.66 -3.68 17.32 -3 18 C-6.13801103 17.36391668 -8.52149131 16.29242198 -11.25 14.625 C-11.95640625 14.20476563 -12.6628125 13.78453125 -13.390625 13.3515625 C-13.92171875 12.90554687 -14.4528125 12.45953125 -15 12 C-15 11.01 -15 10.02 -15 9 C-15.66 8.67 -16.32 8.34 -17 8 C-16.4225 7.79375 -15.845 7.5875 -15.25 7.375 C-12.73102088 6.05231671 -12.73102088 6.05231671 -11 3 C-7.69934141 -1.95098789 -5.27072566 -3.06437539 0 0 Z " fill="#57C0F6" transform="translate(52,12)"/>
<path d="M0 0 C6.13680387 2.15617433 6.13680387 2.15617433 8 5 C8.1875 8.6875 8.1875 8.6875 8 12 C7.34 12 6.68 12 6 12 C5.67 12.99 5.34 13.98 5 15 C-0.94 15 -6.88 15 -13 15 C-13 13.68 -13 12.36 -13 11 C-7.88636364 6 -7.88636364 6 -4 6 C-3.67 5.34 -3.34 4.68 -3 4 C-2.34 3.67 -1.68 3.34 -1 3 C-0.67 2.01 -0.34 1.02 0 0 Z " fill="#534CD7" transform="translate(143,42)"/>
<path d="M0 0 C1.29550781 0.00644531 2.59101562 0.01289062 3.92578125 0.01953125 C5.28906519 0.03624057 6.65234644 0.05317044 8.015625 0.0703125 C9.39452485 0.0803491 10.77343165 0.08947377 12.15234375 0.09765625 C15.52361382 0.12123157 18.89453136 0.1541398 22.265625 0.1953125 C23.40215689 12.81888881 23.40215689 12.81888881 23.328125 18.4453125 C23.31910156 19.35796875 23.31007812 20.270625 23.30078125 21.2109375 C23.28917969 21.86578125 23.27757812 22.520625 23.265625 23.1953125 C24.585625 22.2053125 25.905625 21.2153125 27.265625 20.1953125 C27.925625 20.5253125 28.585625 20.8553125 29.265625 21.1953125 C26.87053162 24.09463607 24.95317257 24.69699526 21.265625 25.1953125 C21.1728125 26.4946875 21.1728125 26.4946875 21.078125 27.8203125 C20.02517382 32.19410972 18.28017379 33.88666139 15.265625 37.1953125 C14.605625 38.1853125 13.945625 39.1753125 13.265625 40.1953125 C11.780625 39.7003125 11.780625 39.7003125 10.265625 39.1953125 C10.925625 39.1953125 11.585625 39.1953125 12.265625 39.1953125 C12.265625 38.2053125 12.265625 37.2153125 12.265625 36.1953125 C12.925625 36.1953125 13.585625 36.1953125 14.265625 36.1953125 C14.265625 35.2053125 14.265625 34.2153125 14.265625 33.1953125 C14.925625 33.1953125 15.585625 33.1953125 16.265625 33.1953125 C16.595625 31.2153125 16.925625 29.2353125 17.265625 27.1953125 C18.255625 27.1953125 19.245625 27.1953125 20.265625 27.1953125 C20.265625 18.9453125 20.265625 10.6953125 20.265625 2.1953125 C10.035625 2.1953125 -0.194375 2.1953125 -10.734375 2.1953125 C-6.50475176 0.08050088 -4.62442569 -0.04056514 0 0 Z " fill="#DBE672" transform="translate(40.734375,88.8046875)"/>
<path d="M0 0 C1.32 0 2.64 0 4 0 C4 0.99 4 1.98 4 3 C8.57410443 4.26182191 12.36329881 3.98653217 17 3 C17.66 2.34 18.32 1.68 19 1 C19.99 1 20.98 1 22 1 C22.33 2.32 22.66 3.64 23 5 C23.66 4.67 24.32 4.34 25 4 C25 4.99 25 5.98 25 7 C23.68 7 22.36 7 21 7 C20.67 9.31 20.34 11.62 20 14 C20.66 14.33 21.32 14.66 22 15 C20 15.875 20 15.875 17 16 C10.43443232 12.51739454 4.94621797 6.43854985 0 1 C0 0.67 0 0.34 0 0 Z " fill="#60C4F7" transform="translate(121,110)"/>
<path d="M0 0 C0.33 0.66 0.66 1.32 1 2 C2.7015625 1.98259766 2.7015625 1.98259766 4.4375 1.96484375 C5.95833167 1.9554559 7.47916514 1.94635678 9 1.9375 C9.74378906 1.92912109 10.48757812 1.92074219 11.25390625 1.91210938 C11.99511719 1.90888672 12.73632812 1.90566406 13.5 1.90234375 C14.1703125 1.89710693 14.840625 1.89187012 15.53125 1.88647461 C19.03681363 2.04767784 22.51783087 2.56472886 26 3 C26 14.55 26 26.1 26 38 C25.01 38.495 25.01 38.495 24 39 C24 28.44 24 17.88 24 7 C13.11 6.67 2.22 6.34 -9 6 C-9 5.67 -9 5.34 -9 5 C-6.36 4.67 -3.72 4.34 -1 4 C-0.67 2.68 -0.34 1.36 0 0 Z " fill="#BCC585" transform="translate(19,101)"/>
<path d="M0 0 C2.4375 1.125 2.4375 1.125 4 3 C4.5625 5.9375 4.5625 5.9375 4 9 C1.57904909 11.62846098 -0.04614692 12.81388233 -3.5625 13.5 C-6.88912957 12.81761445 -8.04078918 11.75740782 -10 9 C-10.45319325 5.82764724 -10.52990283 3.93512264 -8.9375 1.125 C-5.88405803 -0.64796631 -3.45262038 -0.36343372 0 0 Z " fill="#DDDDDD" transform="translate(367,44)"/>
<path d="M0 0 C0.556875 0.28875 1.11375 0.5775 1.6875 0.875 C2.8321875 1.431875 2.8321875 1.431875 4 2 C4.7425 2.37125 5.485 2.7425 6.25 3.125 C9.96300763 4.30641152 13.11088818 4.1318343 17 4 C17 3.34 17 2.68 17 2 C17.99 2.33 18.98 2.66 20 3 C19.42215227 6.90047216 17.76734351 9.23265649 15 12 C12.1875 13.1875 12.1875 13.1875 9 13 C4.89989202 10.48344103 1.81068645 7.50008838 0 3 C0 2.01 0 1.02 0 0 Z " fill="#5FADD3" transform="translate(55,41)"/>
<path d="M0 0 C3.465 1.485 3.465 1.485 7 3 C7 3.66 7 4.32 7 5 C7.99 5.33 8.98 5.66 10 6 C10 6.66 10 7.32 10 8 C10.66 8 11.32 8 12 8 C12.35474513 11.27412306 12.21640385 12.67667928 10.35546875 15.45703125 C9.28232422 16.62298828 9.28232422 16.62298828 8.1875 17.8125 C7.12595703 18.99779297 7.12595703 18.99779297 6.04296875 20.20703125 C4 22 4 22 1 22 C1.33 19.69 1.66 17.38 2 15 C3.32 15 4.64 15 6 15 C5.34 12.69 4.68 10.38 4 8 C3.01 8 2.02 8 1 8 C0.67 5.36 0.34 2.72 0 0 Z " fill="#4DA5D0" transform="translate(140,102)"/>
<path d="M0 0 C0.33 0.99 0.66 1.98 1 3 C-1.3125 6.1875 -1.3125 6.1875 -4 9 C-4.66 9 -5.32 9 -6 9 C-6 12.3 -6 15.6 -6 19 C-5.01 19.33 -4.02 19.66 -3 20 C-2.67 21.65 -2.34 23.3 -2 25 C-1.01 25.33 -0.02 25.66 1 26 C0.67 27.32 0.34 28.64 0 30 C-0.44730469 29.48050781 -0.89460938 28.96101563 -1.35546875 28.42578125 C-4.11150884 25.24663906 -6.83156874 22.16110816 -9.875 19.25 C-13 15.94117647 -13 15.94117647 -13 13 C-10.26706678 7.07864468 -5.65608357 3.07044537 0 0 Z " fill="#78C1E4" transform="translate(110,69)"/>
<path d="M0 0 C0.33 0 0.66 0 1 0 C1 11.22 1 22.44 1 34 C11.96463326 33.84201632 11.96463326 33.84201632 22.9284668 33.63964844 C24.31037151 33.62795813 25.69229007 33.61776711 27.07421875 33.609375 C27.78276001 33.58891113 28.49130127 33.56844727 29.22131348 33.54736328 C32.86620548 33.5448086 34.84378152 33.90005955 37.94458008 35.88378906 C40.01617616 38.01665458 40.68784456 39.0865492 41 42 C40.01 42.495 40.01 42.495 39 43 C38.505 41.02 38.505 41.02 38 39 C36.21858253 38.13641377 36.21858253 38.13641377 34 38 C31.72855926 39.85432087 31.72855926 39.85432087 30 42 C29.34 40.02 28.68 38.04 28 36 C14.14 35.505 14.14 35.505 0 35 C0 23.45 0 11.9 0 0 Z " fill="#9593D8" transform="translate(110,5)"/>
<path d="M0 0 C-0.33 1.65 -0.66 3.3 -1 5 C-1.99 5.33 -2.98 5.66 -4 6 C-3.95617187 6.59167969 -3.91234375 7.18335937 -3.8671875 7.79296875 C-3.87596892 10.48447546 -4.04986016 12.47057367 -5 15 C-7.39092999 16.65424123 -9.78836574 17.64066509 -12.4765625 18.73828125 C-16.37237713 20.68618856 -17.82455146 23.30173748 -20 27 C-20.97918775 23.92443042 -21.1498998 23.31407577 -19.6875 20.25 C-19.130625 19.5075 -18.57375 18.765 -18 18 C-17.34 18 -16.68 18 -16 18 C-16 17.34 -16 16.68 -16 16 C-15.01 15.67 -14.02 15.34 -13 15 C-10.92293518 12.21829104 -10.92293518 12.21829104 -9 9 C-8.1646875 7.6696875 -8.1646875 7.6696875 -7.3125 6.3125 C-5.87998897 3.96206103 -5.87998897 3.96206103 -5 1 C-3 0 -3 0 0 0 Z " fill="#35B16B" transform="translate(67,113)"/>
<path d="M0 0 C1.01578125 0.00064453 2.0315625 0.00128906 3.078125 0.00195312 C4.13257813 0.01806641 5.18703125 0.03417969 6.2734375 0.05078125 C7.86671875 0.04594727 7.86671875 0.04594727 9.4921875 0.04101562 C17.38137612 0.09621987 17.38137612 0.09621987 19.6484375 2.36328125 C13.8984375 7.36328125 13.8984375 7.36328125 11.6484375 7.36328125 C11.9784375 5.71328125 12.3084375 4.06328125 12.6484375 2.36328125 C7.0384375 2.03328125 1.4284375 1.70328125 -4.3515625 1.36328125 C-4.6815625 2.68328125 -5.0115625 4.00328125 -5.3515625 5.36328125 C-6.2590625 5.38390625 -7.1665625 5.40453125 -8.1015625 5.42578125 C-11.72879981 6.47209971 -11.98413399 6.81698793 -13.7265625 9.92578125 C-14.2628125 11.06015625 -14.7990625 12.19453125 -15.3515625 13.36328125 C-17.68489583 13.36328125 -20.01822917 13.36328125 -22.3515625 13.36328125 C-20.93809688 11.9226336 -19.52065039 10.4858911 -18.1015625 9.05078125 C-17.31265625 8.25027344 -16.52375 7.44976562 -15.7109375 6.625 C-13.67762183 4.67584474 -11.64555172 2.98906719 -9.3515625 1.36328125 C-9.3515625 2.02328125 -9.3515625 2.68328125 -9.3515625 3.36328125 C-8.80193848 2.87577393 -8.25231445 2.3882666 -7.68603516 1.88598633 C-4.87827705 0.05457163 -3.32544211 -0.01066032 0 0 Z " fill="#89C5EA" transform="translate(128.3515625,57.63671875)"/>
<path d="M0 0 C0 1.65 0 3.3 0 5 C5.28 5 10.56 5 16 5 C16 4.34 16 3.68 16 3 C17.65 2.34 19.3 1.68 21 1 C19.125 5.875 19.125 5.875 18 7 C16.14630389 7.08737645 14.28932459 7.10698153 12.43359375 7.09765625 C11.30888672 7.09443359 10.18417969 7.09121094 9.02539062 7.08789062 C7.84138672 7.07951172 6.65738281 7.07113281 5.4375 7.0625 C4.24962891 7.05798828 3.06175781 7.05347656 1.83789062 7.04882812 C-1.10812226 7.03699675 -4.05403681 7.02051287 -7 7 C-7 4 -7 4 -5.6875 2.375 C-3.93478133 0.94685887 -2.36622962 0 0 0 Z " fill="#49CC95" transform="translate(14,81)"/>
<path d="M0 0 C2 2 2 2 2.22705078 4.06298828 C2.21657715 4.89040527 2.20610352 5.71782227 2.1953125 6.5703125 C2.18886719 7.46621094 2.18242188 8.36210938 2.17578125 9.28515625 C2.15902344 10.22230469 2.14226562 11.15945312 2.125 12.125 C2.11597656 13.06988281 2.10695313 14.01476563 2.09765625 14.98828125 C2.07404522 17.32577292 2.04111516 19.66276123 2 22 C3.21115479 21.99214478 3.21115479 21.99214478 4.44677734 21.98413086 C8.08951038 21.96340071 11.73223102 21.95035251 15.375 21.9375 C16.64601563 21.92912109 17.91703125 21.92074219 19.2265625 21.91210938 C21.04414062 21.90727539 21.04414062 21.90727539 22.8984375 21.90234375 C24.57945557 21.89448853 24.57945557 21.89448853 26.29443359 21.88647461 C29 22 29 22 31 23 C30.67 23.99 30.34 24.98 30 26 C29.34 26 28.68 26 28 26 C28 25.01 28 24.02 28 23 C27.28884033 23.16749756 26.57768066 23.33499512 25.8449707 23.50756836 C22.9382318 24.01069136 20.42217102 24.02681307 17.48046875 23.87890625 C16.55903076 23.83580322 15.63759277 23.7927002 14.68823242 23.74829102 C12.95536987 23.65632446 12.95536987 23.65632446 11.1875 23.5625 C7.495625 23.376875 3.80375 23.19125 0 23 C0 15.41 0 7.82 0 0 Z " fill="#8E83C7" transform="translate(91,35)"/>
<path d="M0 0 C0.66 0.33 1.32 0.66 2 1 C0.66342976 3.90336311 -0.84722571 6.2102811 -2.9375 8.625 C-3.44152344 9.21539062 -3.94554688 9.80578125 -4.46484375 10.4140625 C-6 12 -6 12 -9 14 C-11.6875 13.625 -11.6875 13.625 -14 13 C-14 12.01 -14 11.02 -14 10 C-13.071875 9.566875 -12.14375 9.13375 -11.1875 8.6875 C-8.41785349 7.22121655 -7.05074169 6.22906706 -5 4 C-3.34466005 2.65263027 -1.67987227 1.31665664 0 0 Z " fill="#6DB8DC" transform="translate(77,16)"/>
<path d="M0 0 C0 0.66 0 1.32 0 2 C-0.66 2 -1.32 2 -2 2 C-2.07347656 2.73605469 -2.14695312 3.47210938 -2.22265625 4.23046875 C-3.20701814 7.73756713 -4.68341332 8.97262796 -7.4375 11.3125 C-8.24058594 12.00988281 -9.04367188 12.70726563 -9.87109375 13.42578125 C-12 15 -12 15 -14 15 C-13.33333967 9.1667221 -10.19247492 5.94500273 -5.9375 2.1875 C-3 0 -3 0 0 0 Z " fill="#56AC86" transform="translate(88,93)"/>
<path d="M0 0 C2.625 0.375 2.625 0.375 5 1 C5 1.99 5 2.98 5 4 C5.5775 4.226875 6.155 4.45375 6.75 4.6875 C9.5663661 6.33038023 11.08077114 8.39533227 13 11 C12.01 11 11.02 11 10 11 C10 10.34 10 9.68 10 9 C6.37114676 8.84850702 6.37114676 8.84850702 3 10 C2.34 9.67 1.68 9.34 1 9 C1.66 7.35 2.32 5.7 3 4 C1.68 4 0.36 4 -1 4 C-1 4.66 -1 5.32 -1 6 C-1.99 6 -2.98 6 -4 6 C-2.84826645 3.53199953 -1.95216435 1.95216435 0 0 Z " fill="#52D89F" transform="translate(14,21)"/>
<path d="M0 0 C1.37562854 1.28965176 2.70766393 2.62689293 4 4 C4 4.66 4 5.32 4 6 C4.66 6 5.32 6 6 6 C6.33 6.99 6.66 7.98 7 9 C9.02239937 10.40242493 11.12813122 11.53598759 13.28515625 12.71875 C13.85105469 13.1415625 14.41695312 13.564375 15 14 C15 14.99 15 15.98 15 17 C15.66 17.33 16.32 17.66 17 18 C16.67 19.32 16.34 20.64 16 22 C15.3498291 21.30438965 15.3498291 21.30438965 14.68652344 20.59472656 C12.70839268 18.47915219 10.72920643 16.36456805 8.75 14.25 C8.06808594 13.52039062 7.38617188 12.79078125 6.68359375 12.0390625 C6.01972656 11.33007812 5.35585938 10.62109375 4.671875 9.890625 C4.0644043 9.24125977 3.45693359 8.59189453 2.83105469 7.92285156 C0.91924811 5.91519975 -1.03216682 3.95263756 -3 2 C-2.34 2 -1.68 2 -1 2 C-0.67 1.34 -0.34 0.68 0 0 Z " fill="#83C4E2" transform="translate(31,15)"/>
<path d="M0 0 C0.99 0.33 1.98 0.66 3 1 C3.33 2.65 3.66 4.3 4 6 C3.34 6 2.68 6 2 6 C1.95875 6.61875 1.9175 7.2375 1.875 7.875 C1.441875 8.926875 1.441875 8.926875 1 10 C-2.0625 11.25 -2.0625 11.25 -5 12 C-5 11.34 -5 10.68 -5 10 C-5.66 9.34 -6.32 8.68 -7 8 C-6.34 8 -5.68 8 -5 8 C-4.9175 7.4225 -4.835 6.845 -4.75 6.25 C-3.79468987 3.3840696 -2.21530827 2.0009236 0 0 Z " fill="#4FCE97" transform="translate(25,67)"/>
<path d="M0 0 C0.33 0.99 0.66 1.98 1 3 C-3.11111111 8.55555556 -3.11111111 8.55555556 -6 10 C-6.33 10.99 -6.66 11.98 -7 13 C-8.65 13.33 -10.3 13.66 -12 14 C-11.73036431 9.41619324 -9.83205446 7.35769838 -6.6328125 4.359375 C-4.55831812 2.63228399 -2.38319124 1.26168948 0 0 Z " fill="#72A5BC" transform="translate(110,69)"/>
<path d="M0 0 C0 0.99 0 1.98 0 3 C8.58 3 17.16 3 26 3 C26 3.33 26 3.66 26 4 C14.12 4 2.24 4 -10 4 C-10.33 3.01 -10.66 2.02 -11 1 C-9.54182203 0.83197949 -8.0834516 0.66562857 -6.625 0.5 C-5.81289062 0.4071875 -5.00078125 0.314375 -4.1640625 0.21875 C-2 0 -2 0 0 0 Z " fill="#7A954D" transform="translate(18,102)"/>
<path d="M0 0 C0.86625 0.185625 1.7325 0.37125 2.625 0.5625 C6.05809057 1.00753026 8.62286547 0.61402446 12 0 C12.66 0.33 13.32 0.66 14 1 C13.67 2.32 13.34 3.64 13 5 C11.68 5.33 10.36 5.66 9 6 C9 5.34 9 4.68 9 4 C8.01 4.33 7.02 4.66 6 5 C6.33 5.66 6.66 6.32 7 7 C5.0625 6.1875 5.0625 6.1875 3 5 C2.67 4.01 2.34 3.02 2 2 C1.34 2 0.68 2 0 2 C0 1.34 0 0.68 0 0 Z " fill="#56E2A6" transform="translate(105,137)"/>
<path d="M0 0 C2 1 2 1 3 2 C4.34747084 2.23075082 5.70377565 2.41153063 7.0625 2.5625 C8.361875 2.706875 9.66125 2.85125 11 3 C11 4.32 11 5.64 11 7 C8.03 7 5.06 7 2 7 C1.67 7.66 1.34 8.32 1 9 C-1.09230769 4.56923077 -1.09230769 4.56923077 -0.625 1.6875 C-0.41875 1.130625 -0.2125 0.57375 0 0 Z " fill="#2FAF76" transform="translate(5,96)"/>
<path d="M0 0 C0.66 0.33 1.32 0.66 2 1 C1.34 1.66 0.68 2.32 0 3 C0.99 3.99 1.98 4.98 3 6 C2.67 6.99 2.34 7.98 2 9 C-0.31 8.67 -2.62 8.34 -5 8 C-5 8.66 -5 9.32 -5 10 C-4.01 10.66 -3.02 11.32 -2 12 C-3.98 12 -5.96 12 -8 12 C-6.64994369 6.32976351 -4.1842771 3.82042691 0 0 Z " fill="#DEE248" transform="translate(28,91)"/>
<path d="M0 0 C3.79160297 -0.05786668 7.58309311 -0.09355054 11.375 -0.125 C12.45523438 -0.14175781 13.53546875 -0.15851562 14.6484375 -0.17578125 C15.6796875 -0.18222656 16.7109375 -0.18867187 17.7734375 -0.1953125 C19.20308838 -0.21102295 19.20308838 -0.21102295 20.66162109 -0.22705078 C23 0 23 0 25 2 C19.25 7 19.25 7 17 7 C17.33 5.35 17.66 3.7 18 2 C11.73 2 5.46 2 -1 2 C-0.67 1.34 -0.34 0.68 0 0 Z " fill="#6B98F6" transform="translate(123,58)"/>
<path d="M0 0 C2 2 2 2 2 5 C2.763125 4.773125 3.52625 4.54625 4.3125 4.3125 C5.199375 4.209375 6.08625 4.10625 7 4 C8.6875 5.375 8.6875 5.375 10 7 C10.66 7.33 11.32 7.66 12 8 C12 8.66 12 9.32 12 10 C9.03824877 9.38722388 7.61941217 8.74627478 5 7 C5.33 8.65 5.66 10.3 6 12 C3.06799526 9.14723863 0.35684596 6.34920216 -2 3 C-1.34 3 -0.68 3 0 3 C0 2.01 0 1.02 0 0 Z " fill="#72BAE1" transform="translate(50,34)"/>
<path d="M0 0 C2.625 -0.1875 2.625 -0.1875 5 0 C1.68542782 4.69564393 -2.36279281 7.72469104 -7 11 C-7.33 9.02 -7.66 7.04 -8 5 C-7.05125 4.731875 -6.1025 4.46375 -5.125 4.1875 C-1.74732727 3.25013412 -1.74732727 3.25013412 0 0 Z " fill="#7EDFB5" transform="translate(82,121)"/>
<path d="M0 0 C0.33 0.66 0.66 1.32 1 2 C1.99 1.67 2.98 1.34 4 1 C4 2.98 4 4.96 4 7 C3.34 6.34 2.68 5.68 2 5 C1.67 15.56 1.34 26.12 1 37 C0.67 37 0.34 37 0 37 C0 24.79 0 12.58 0 0 Z " fill="#FFFFFF" transform="translate(370,60)"/>
<path d="M0 0 C0.33 0 0.66 0 1 0 C1 8.25 1 16.5 1 25 C2.65 24.67 4.3 24.34 6 24 C6 24.66 6 25.32 6 26 C5.01 26.66 4.02 27.32 3 28 C1.79549696 30.55183404 1.79549696 30.55183404 1 33 C0.67 33 0.34 33 0 33 C0 22.11 0 11.22 0 0 Z " fill="#E3DD5A" transform="translate(45,105)"/>
<path d="M0 0 C1.32 0.66 2.64 1.32 4 2 C3.34 2.66 2.68 3.32 2 4 C1.83318891 7.08347826 1.83318891 7.08347826 2 10 C2.99 10 3.98 10 5 10 C5.66 11.32 6.32 12.64 7 14 C5.02 14.99 5.02 14.99 3 16 C3.33 14.35 3.66 12.7 4 11 C3.236875 11.495 2.47375 11.99 1.6875 12.5 C-1 14 -1 14 -4 14 C-4 13.34 -4 12.68 -4 12 C-3.34 12 -2.68 12 -2 12 C-2 11.34 -2 10.68 -2 10 C-1.34 9.34 -0.68 8.68 0 8 C-0.28730055 5.66055264 -0.61936779 3.3260857 -1 1 C-0.67 0.67 -0.34 0.34 0 0 Z " fill="#58BFF1" transform="translate(139,100)"/>
<path d="M0 0 C0.33 0 0.66 0 1 0 C1.33 1.98 1.66 3.96 2 6 C1.34 6 0.68 6 0 6 C-0.061875 6.86625 -0.12375 7.7325 -0.1875 8.625 C-1.24045118 12.99879722 -2.98545121 14.69134889 -6 18 C-6.66 18.99 -7.32 19.98 -8 21 C-8.99 20.67 -9.98 20.34 -11 20 C-10.34 20 -9.68 20 -9 20 C-9 19.01 -9 18.02 -9 17 C-8.34 17 -7.68 17 -7 17 C-7 16.01 -7 15.02 -7 14 C-6.34 14 -5.68 14 -5 14 C-4.67 12.02 -4.34 10.04 -4 8 C-3.01 8 -2.02 8 -1 8 C-0.67 5.36 -0.34 2.72 0 0 Z " fill="#D4E251" transform="translate(62,108)"/>
<path d="M0 0 C0.99 0 1.98 0 3 0 C2.67 0.99 2.34 1.98 2 3 C1.01 3 0.02 3 -1 3 C-0.649375 3.7425 -0.29875 4.485 0.0625 5.25 C1.04509293 8.1322726 1.0326802 9.21176345 0 12 C-1.9375 11.3125 -1.9375 11.3125 -4 10 C-4.875 7.5625 -4.875 7.5625 -5 5 C-4.34 4.01 -3.68 3.02 -3 2 C-2.01 2 -1.02 2 0 2 C0 1.34 0 0.68 0 0 Z " fill="#74ADC6" transform="translate(30,6)"/>
<path d="M0 0 C-0.58523437 0.27070312 -1.17046875 0.54140625 -1.7734375 0.8203125 C-3.98379242 1.99141283 -5.72285264 3.25775577 -7.625 4.875 C-8.51058594 5.61363281 -8.51058594 5.61363281 -9.4140625 6.3671875 C-11.11057963 7.94079144 -11.11057963 7.94079144 -12.0234375 10.1328125 C-13 12 -13 12 -16 13 C-15.42655063 10.13275314 -15.1385485 9.1385485 -13 7 C-12.3574765 4.93125966 -12.3574765 4.93125966 -12 3 C-11.01 3 -10.02 3 -9 3 C-9 2.34 -9 1.68 -9 1 C-5.8035914 -0.06546953 -3.34252724 -0.07427838 0 0 Z " fill="#59A64C" transform="translate(34,89)"/>
<path d="M0 0 C0.66 1.32 1.32 2.64 2 4 C-0.99481865 8.31606218 -0.99481865 8.31606218 -3 10 C-6.3125 9.875 -6.3125 9.875 -9 9 C-7.625 7 -7.625 7 -6 5 C-5.34 5 -4.68 5 -4 5 C-3.566875 4.0409375 -3.566875 4.0409375 -3.125 3.0625 C-2 1 -2 1 0 0 Z " fill="#81DAB6" transform="translate(19,73)"/>
<path d="M0 0 C0.33 0 0.66 0 1 0 C1.36712784 7.34255689 1.36712784 7.34255689 -0.18554688 10.12304688 C-2 12 -2 12 -4.4519043 12.36230469 C-5.39976807 12.29946289 -6.34763184 12.23662109 -7.32421875 12.171875 C-8.35224609 12.11386719 -9.38027344 12.05585937 -10.43945312 11.99609375 C-11.51130859 11.91488281 -12.58316406 11.83367188 -13.6875 11.75 C-14.77095703 11.68425781 -15.85441406 11.61851563 -16.97070312 11.55078125 C-19.64887652 11.38560756 -22.3243402 11.20131547 -25 11 C-25 10.67 -25 10.34 -25 10 C-17.74 9.67 -10.48 9.34 -3 9 C-2.67 8.34 -2.34 7.68 -2 7 C-1.34 7 -0.68 7 0 7 C0 4.69 0 2.38 0 0 Z " fill="#434EC0" transform="translate(151,47)"/>
<path d="M0 0 C0.33 0 0.66 0 1 0 C1.33 5.28 1.66 10.56 2 16 C3.65 16.33 5.3 16.66 7 17 C5.75 18.5 5.75 18.5 4 20 C2.68 20 1.36 20 0 20 C0 13.4 0 6.8 0 0 Z " fill="#E7DE44" transform="translate(46,110)"/>
<path d="M0 0 C0.33 0 0.66 0 1 0 C1.33 3.63 1.66 7.26 2 11 C2.99 11.33 3.98 11.66 5 12 C4.75 14.375 4.75 14.375 4 17 C2.02 17.99 2.02 17.99 0 19 C0 12.73 0 6.46 0 0 Z " fill="#5560C8" transform="translate(92,5)"/>
<path d="M0 0 C0.99 0 1.98 0 3 0 C2.56562648 4.92289989 0.356381 7.48750825 -3 11 C-5.3125 12.375 -5.3125 12.375 -7 13 C-7.1875 10.625 -7.1875 10.625 -7 8 C-4 6 -4 6 -1 6 C-0.67 4.02 -0.34 2.04 0 0 Z " fill="#86C7AC" transform="translate(127,133)"/>
<path d="M0 0 C2.31 0 4.62 0 7 0 C7 1.98 7 3.96 7 6 C7.66 6.33 8.32 6.66 9 7 C5.2241456 6.47557578 2.77627845 5.67345333 0 3 C0 2.01 0 1.02 0 0 Z " fill="#64AACC" transform="translate(131,118)"/>
<path d="M0 0 C1.32 0 2.64 0 4 0 C4 0.66 4 1.32 4 2 C7.465 1.505 7.465 1.505 11 1 C10.67 2.65 10.34 4.3 10 6 C7.25 6.375 7.25 6.375 4 6 C1.625 3 1.625 3 0 0 Z " fill="#5AAC88" transform="translate(110,141)"/>
<path d="M0 0 C0.86625 0.4640625 0.86625 0.4640625 1.75 0.9375 C3.92954724 2.07743133 3.92954724 2.07743133 6.1875 2.4375 C6.785625 2.623125 7.38375 2.80875 8 3 C8.33 3.99 8.66 4.98 9 6 C8.67 6.66 8.34 7.32 8 8 C2.25 6.375 2.25 6.375 0 3 C0 2.01 0 1.02 0 0 Z " fill="#4CA1CB" transform="translate(55,41)"/>
<path d="M0 0 C0 3 0 3 -2 5.1875 C-2.66 5.785625 -3.32 6.38375 -4 7 C-3.01 7.66 -2.02 8.32 -1 9 C-2.32 9.99 -3.64 10.98 -5 12 C-5.66 11.34 -6.32 10.68 -7 10 C-8.32 10.99 -9.64 11.98 -11 13 C-9.46356148 9.31930113 -7.21849055 7.01224796 -4.375 4.25 C-3.55773437 3.45078125 -2.74046875 2.6515625 -1.8984375 1.828125 C-0.95871094 0.92320312 -0.95871094 0.92320312 0 0 Z " fill="#A7D2EC" transform="translate(84,7)"/>
<path d="M0 0 C2 3 2 3 2 6 C0.02 6.33 -1.96 6.66 -4 7 C-3.34 9.31 -2.68 11.62 -2 14 C-4.0625 12.25 -4.0625 12.25 -6 10 C-6.13713358 5.88599272 -2.56269327 2.89124369 0 0 Z " fill="#87D3B5" transform="translate(9,25)"/>
<path d="M0 0 C0.33 0 0.66 0 1 0 C1 2.97 1 5.94 1 9 C-0.98 9.99 -0.98 9.99 -3 11 C-4.04434887 7.67707176 -4.2162055 6.43241099 -2.625 3.25 C-1 1 -1 1 0 0 Z " fill="#38B383" transform="translate(62,136)"/>
<path d="M0 0 C4.50033498 2.38253028 7.58933975 5.27206903 11 9 C11 9.66 11 10.32 11 11 C12.32 11.66 13.64 12.32 15 13 C14.34 13.66 13.68 14.32 13 15 C13 14.34 13 13.68 13 13 C12.236875 12.773125 11.47375 12.54625 10.6875 12.3125 C7.38548139 10.69988626 6.7957788 9.14261291 5 6 C3.34466005 4.65263027 1.67987227 3.31665664 0 2 C0 1.34 0 0.68 0 0 Z " fill="#ABE4CD" transform="translate(19,23)"/>
<path d="M0 0 C0.99 0.33 1.98 0.66 3 1 C0.69 4.3 -1.62 7.6 -4 11 C-5 7 -5 7 -3.6875 4.25 C-3.130625 3.5075 -2.57375 2.765 -2 2 C-1.34 2 -0.68 2 0 2 C0 1.34 0 0.68 0 0 Z " fill="#4CA856" transform="translate(51,129)"/>
<path d="M0 0 C0.66 0.99 1.32 1.98 2 3 C0.66667905 6.99996286 -1.4957827 7.83782337 -5 10 C-5.33 9.01 -5.66 8.02 -6 7 C-4.78515625 5.17578125 -4.78515625 5.17578125 -3.0625 3.3125 C-2.49660156 2.68988281 -1.93070312 2.06726563 -1.34765625 1.42578125 C-0.90292969 0.95527344 -0.45820312 0.48476562 0 0 Z " fill="#62CA9D" transform="translate(73,105)"/>
<path d="M0 0 C3.80635497 3.20760251 7.54563567 6.40746109 11 10 C8 11 8 11 6 10.4375 C2.46208665 7.89462478 1.33944599 4.01833796 0 0 Z " fill="#78D3AA" transform="translate(40,43)"/>
<path d="M0 0 C0.66 0 1.32 0 2 0 C1.52797514 4.24822374 -0.96655518 6.19989709 -4 9 C-4.33 6.69 -4.66 4.38 -5 2 C-3.68 2 -2.36 2 -1 2 C-0.67 1.34 -0.34 0.68 0 0 Z " fill="#7AB7D7" transform="translate(73,44)"/>
<path d="M0 0 C0.6875 1.8125 0.6875 1.8125 1 4 C-0.125 5.8125 -0.125 5.8125 -2 7 C-4.6875 6.6875 -4.6875 6.6875 -7 6 C-5.9024777 3.00675737 -5.32317108 2.15389099 -2.375 0.75 C-1.59125 0.5025 -0.8075 0.255 0 0 Z " fill="#64C097" transform="translate(13,81)"/>
<path d="M0 0 C0.33 0.66 0.66 1.32 1 2 C6.61 2 12.22 2 18 2 C18 2.33 18 2.66 18 3 C8.595 3.495 8.595 3.495 -1 4 C-0.67 2.68 -0.34 1.36 0 0 Z " fill="#A8A82A" transform="translate(19,101)"/>
<path d="M0 0 C0.66 1.32 1.32 2.64 2 4 C2.99 4 3.98 4 5 4 C5.33 5.65 5.66 7.3 6 9 C3.08482708 7.92598892 1.22189824 7.22189824 -1 5 C-0.625 2.375 -0.625 2.375 0 0 Z " fill="#66B584" transform="translate(45,138)"/>
<path d="M0 0 C-0.25 2.375 -0.25 2.375 -1 5 C-3.0625 6.3125 -3.0625 6.3125 -5 7 C-6 4 -6 4 -5 1 C-3 0 -3 0 0 0 Z " fill="#4A9E61" transform="translate(67,113)"/>
<path d="M0 0 C1.32 0.33 2.64 0.66 4 1 C4 1.66 4 2.32 4 3 C4.99 3.33 5.98 3.66 7 4 C7 4.66 7 5.32 7 6 C7.66 6 8.32 6 9 6 C9 7.65 9 9.3 9 11 C8.938125 10.38125 8.87625 9.7625 8.8125 9.125 C8.18624774 6.75320779 8.18624774 6.75320779 5.625 5.875 C4.75875 5.58625 3.8925 5.2975 3 5 C2.01 4.34 1.02 3.68 0 3 C0 2.01 0 1.02 0 0 Z " fill="#87B9D2" transform="translate(143,104)"/>
<path d="M0 0 C0.99 0.33 1.98 0.66 3 1 C3 1.99 3 2.98 3 4 C-1.22222222 7 -1.22222222 7 -4 7 C-3.43628586 3.73045798 -2.50037734 2.17424117 0 0 Z " fill="#3F9670" transform="translate(25,67)"/>
<path d="M0 0 C1.65 0.33 3.3 0.66 5 1 C4.67 3.64 4.34 6.28 4 9 C2.68 9.33 1.36 9.66 0 10 C0 6.42424104 1.08840607 4.94704065 3 2 C2.01 1.67 1.02 1.34 0 1 C0 0.67 0 0.34 0 0 Z " fill="#7BDAB0" transform="translate(27,58)"/>
<path d="M0 0 C0.75 1.6875 0.75 1.6875 1 4 C-0.9375 6.75 -0.9375 6.75 -3 9 C-3.99 8.67 -4.98 8.34 -6 8 C-2.25 2.25 -2.25 2.25 0 0 Z " fill="#4FB159" transform="translate(60,120)"/>
<path d="M0 0 C0.33 1.32 0.66 2.64 1 4 C0.01 4.495 0.01 4.495 -1 5 C-1 6.32 -1 7.64 -1 9 C-2.9375 8.25 -2.9375 8.25 -5 7 C-5.75 4.875 -5.75 4.875 -6 3 C-4.02 3 -2.04 3 0 3 C0 2.01 0 1.02 0 0 Z " fill="#6BB4D8" transform="translate(103,79)"/>
<path d="M0 0 C2.625 0.375 2.625 0.375 5 1 C4.67 1.99 4.34 2.98 4 4 C2.68 4 1.36 4 0 4 C-0.33 4.66 -0.66 5.32 -1 6 C-1.99 6 -2.98 6 -4 6 C-2.84826645 3.53199953 -1.95216435 1.95216435 0 0 Z " fill="#55A584" transform="translate(14,21)"/>
<path d="M0 0 C4.75 0.875 4.75 0.875 7 2 C7 3.32 7 4.64 7 6 C6.01 6 5.02 6 4 6 C3.34 4.68 2.68 3.36 2 2 C1.34 2 0.68 2 0 2 C0 1.34 0 0.68 0 0 Z " fill="#8FE1BE" transform="translate(105,137)"/>
<path d="M0 0 C-0.33 1.65 -0.66 3.3 -1 5 C-3.5 3.625 -3.5 3.625 -6 2 C-6 1.34 -6 0.68 -6 0 C-3.50907189 -1.24546405 -2.58919267 -0.7767578 0 0 Z " fill="#4F98C2" transform="translate(125,106)"/>
<path d="M0 0 C0.33 0.99 0.66 1.98 1 3 C-0.9375 5.6875 -0.9375 5.6875 -3 8 C-4.32 7.67 -5.64 7.34 -7 7 C-4.66666667 4.66666667 -2.33333333 2.33333333 0 0 Z " fill="#4087AD" transform="translate(110,69)"/>
<path d="M0 0 C0.66 0.33 1.32 0.66 2 1 C1 3 0 5 -1 7 C-2.32 7 -3.64 7 -5 7 C-5 6.01 -5 5.02 -5 4 C-2.5 1.8125 -2.5 1.8125 0 0 Z " fill="#448DB3" transform="translate(77,16)"/>
<path d="M0 0 C1.125 1.75 1.125 1.75 2 4 C1.00880868 6.97357395 -0.60182961 9.00152468 -3 11 C-3.66 11 -4.32 11 -5 11 C-5 10.34 -5 9.68 -5 9 C-4.34 9 -3.68 9 -3 9 C-3 7.68 -3 6.36 -3 5 C-2.01 5 -1.02 5 0 5 C0 3.35 0 1.7 0 0 Z " fill="#7AADC5" transform="translate(147,113)"/>
<path d="M0 0 C-0.25 1.875 -0.25 1.875 -1 4 C-2.8125 5.3125 -2.8125 5.3125 -5 6 C-7.13671875 5.54296875 -7.13671875 5.54296875 -9 5 C-7.87926138 4.16094435 -6.75325453 3.32892169 -5.625 2.5 C-4.99851562 2.0359375 -4.37203125 1.571875 -3.7265625 1.09375 C-2 0 -2 0 0 0 Z " fill="#8FC6ED" transform="translate(94,1)"/>
<path d="M0 0 C2.64 0 5.28 0 8 0 C7.67 0.99 7.34 1.98 7 3 C4.36 3 1.72 3 -1 3 C-0.67 2.01 -0.34 1.02 0 0 Z " fill="#403D9E" transform="translate(96,0)"/>
<path d="M0 0 C0.66 0.33 1.32 0.66 2 1 C0.02 3.31 -1.96 5.62 -4 8 C-4.66 7.67 -5.32 7.34 -6 7 C-5.8125 5.1875 -5.8125 5.1875 -5 3 C-2.5625 1.1875 -2.5625 1.1875 0 0 Z " fill="#B7B7B7" transform="translate(245,61)"/>
<path d="M0 0 C0.99 0.66 1.98 1.32 3 2 C-2.75 7 -2.75 7 -5 7 C-4.75 4.625 -4.75 4.625 -4 2 C-1.9375 0.6875 -1.9375 0.6875 0 0 Z " fill="#7AA9D7" transform="translate(145,58)"/>
<path d="M0 0 C1.98 1.65 3.96 3.3 6 5 C5.01 5.495 5.01 5.495 4 6 C3.67 6.66 3.34 7.32 3 8 C2.01 8.33 1.02 8.66 0 9 C0 6.03 0 3.06 0 0 Z " fill="#80CBEF" transform="translate(59,20)"/>
<path d="M0 0 C1.32 0 2.64 0 4 0 C4 0.99 4 1.98 4 3 C5.32 3.33 6.64 3.66 8 4 C7.67 5.32 7.34 6.64 7 8 C5.83035398 6.8572081 4.66435444 5.71068285 3.5 4.5625 C2.8503125 3.92441406 2.200625 3.28632812 1.53125 2.62890625 C0 1 0 1 0 0 Z " fill="#9DD4EC" transform="translate(121,110)"/>
<path d="M0 0 C3.7952131 1.49097658 5.61042731 3.75700849 8 7 C5.5625 6.625 5.5625 6.625 3 6 C2.67 5.34 2.34 4.68 2 4 C1.01 3.34 0.02 2.68 -1 2 C-0.67 1.34 -0.34 0.68 0 0 Z " fill="#93E5C2" transform="translate(100,105)"/>
<path d="M0 0 C0.99 0.33 1.98 0.66 3 1 C2.67 2.65 2.34 4.3 2 6 C1.01 6.33 0.02 6.66 -1 7 C-1.04254356 5.00045254 -1.04080783 2.99958364 -1 1 C-0.67 0.67 -0.34 0.34 0 0 Z " fill="#5DAA87" transform="translate(55,59)"/>
<path d="M0 0 C1.07310858 3.27185553 0.89263102 5.42947592 0.0625 8.75 C-0.13214844 9.54921875 -0.32679688 10.3484375 -0.52734375 11.171875 C-0.68332031 11.77515625 -0.83929688 12.3784375 -1 13 C-1.33 13 -1.66 13 -2 13 C-2.05416188 11.39620659 -2.09286638 9.79188594 -2.125 8.1875 C-2.14820313 7.29417969 -2.17140625 6.40085937 -2.1953125 5.48046875 C-2 3 -2 3 0 0 Z " fill="#7BB392" transform="translate(5,87)"/>
<path d="M0 0 C2.31 0 4.62 0 7 0 C6.67 1.98 6.34 3.96 6 6 C3.97945196 4.35830472 1.97956942 2.69088222 0 1 C0 0.67 0 0.34 0 0 Z " fill="#8BE2C0" transform="translate(17,49)"/>
<path d="M0 0 C1.98 0 3.96 0 6 0 C5.67 1.32 5.34 2.64 5 4 C3.35 3.67 1.7 3.34 0 3 C0 2.01 0 1.02 0 0 Z " fill="#3F8CB6" transform="translate(63,26)"/>
<path d="M0 0 C1.98 1.65 3.96 3.3 6 5 C4.68 5.33 3.36 5.66 2 6 C2 6.66 2 7.32 2 8 C1.34 8 0.68 8 0 8 C0 5.36 0 2.72 0 0 Z " fill="#78C7EE" transform="translate(53,14)"/>
<path d="M0 0 C0.33 0.99 0.66 1.98 1 3 C-0.4375 5.1875 -0.4375 5.1875 -2 7 C-3.32 6.67 -4.64 6.34 -6 6 C-4.02 4.02 -2.04 2.04 0 0 Z " fill="#4991BA" transform="translate(85,8)"/>
<path d="M0 0 C2 3 2 3 2 5 C2.66 5 3.32 5 4 5 C3.67 6.32 3.34 7.64 3 9 C1.35 7.02 -0.3 5.04 -2 3 C-1.34 3 -0.68 3 0 3 C0 2.01 0 1.02 0 0 Z " fill="#76D7AE" transform="translate(91,118)"/>
<path d="M0 0 C0 0.66 0 1.32 0 2 C-0.66 2 -1.32 2 -2 2 C-2.33 3.65 -2.66 5.3 -3 7 C-4.32 6.01 -5.64 5.02 -7 4 C-3.375 0 -3.375 0 0 0 Z " fill="#63B290" transform="translate(88,93)"/>
<path d="M0 0 C1.98 0 3.96 0 6 0 C4.25 3.875 4.25 3.875 2 5 C2 4.34 2 3.68 2 3 C1.01 2.67 0.02 2.34 -1 2 C-0.67 1.34 -0.34 0.68 0 0 Z " fill="#7BC8EB" transform="translate(124,76)"/>
<path d="M0 0 C0.66 0.33 1.32 0.66 2 1 C0.6875 3.5 0.6875 3.5 -1 6 C-1.99 6 -2.98 6 -4 6 C-4 6.66 -4 7.32 -4 8 C-4.66 7.67 -5.32 7.34 -6 7 C-4.02 4.69 -2.04 2.38 0 0 Z " fill="#9FC4D6" transform="translate(34,0)"/>
<path d="M0 0 C0.33 0.66 0.66 1.32 1 2 C0.01 2.66 -0.98 3.32 -2 4 C-3.20450304 6.55183404 -3.20450304 6.55183404 -4 9 C-4.33 9 -4.66 9 -5 9 C-4.67 6.36 -4.34 3.72 -4 1 C-2.68 0.67 -1.36 0.34 0 0 Z " fill="#CAE165" transform="translate(50,129)"/>
<path d="M0 0 C0.33 0.99 0.66 1.98 1 3 C0.34 3.66 -0.32 4.32 -1 5 C-1.33 5.66 -1.66 6.32 -2 7 C-2.66 7 -3.32 7 -4 7 C-4.33 7.66 -4.66 8.32 -5 9 C-4.67 6.69 -4.34 4.38 -4 2 C-2.68 2 -1.36 2 0 2 C0 1.34 0 0.68 0 0 Z " fill="#4092BE" transform="translate(146,115)"/>
<path d="M0 0 C0.66 0 1.32 0 2 0 C2 2.31 2 4.62 2 7 C0.68 6.34 -0.64 5.68 -2 5 C-1.34 3.35 -0.68 1.7 0 0 Z " fill="#81CAE8" transform="translate(124,81)"/>
<path d="M0 0 C0.66 0.66 1.32 1.32 2 2 C-2.75 7.75 -2.75 7.75 -5 10 C-4.49701212 5.59885603 -2.91227269 3.28804981 0 0 Z " fill="#634DC9" transform="translate(98,18)"/>
<path d="M0 0 C1.32 1.32 2.64 2.64 4 4 C0.71303767 4.79953138 -0.71023192 5.09658936 -4 4 C-4 3.34 -4 2.68 -4 2 C-2.68 2 -1.36 2 0 2 C0 1.34 0 0.68 0 0 Z " fill="#6FC0EC" transform="translate(46,7)"/>
<path d="M0 0 C1.32 0.66 2.64 1.32 4 2 C4 2.99 4 3.98 4 5 C2.68 5 1.36 5 0 5 C-0.5625 3.0625 -0.5625 3.0625 -1 1 C-0.67 0.67 -0.34 0.34 0 0 Z " fill="#599ABE" transform="translate(42,4)"/>
<path d="M0 0 C1.65 0 3.3 0 5 0 C4.67 1.32 4.34 2.64 4 4 C2.68 4 1.36 4 0 4 C0 2.68 0 1.36 0 0 Z " fill="#5A4AD8" transform="translate(98,4)"/>
<path d="M0 0 C0.99 0 1.98 0 3 0 C3.33 1.32 3.66 2.64 4 4 C2.02 4 0.04 4 -2 4 C-1.34 2.68 -0.68 1.36 0 0 Z " fill="#529DC1" transform="translate(36,0)"/>
<path d="M0 0 C0.66 0.33 1.32 0.66 2 1 C1.67 2.32 1.34 3.64 1 5 C-0.32 5 -1.64 5 -3 5 C-3 3.68 -3 2.36 -3 1 C-2.01 0.67 -1.02 0.34 0 0 Z " fill="#41A278" transform="translate(119,142)"/>
<path d="M0 0 C1.875 0.3125 1.875 0.3125 4 1 C4.66 1.99 5.32 2.98 6 4 C4.02 4 2.04 4 0 4 C-0.33 3.34 -0.66 2.68 -1 2 C-0.67 1.34 -0.34 0.68 0 0 Z " fill="#6BDBA9" transform="translate(117,123)"/>
<path d="M0 0 C0.66 0.33 1.32 0.66 2 1 C2 1.99 2 2.98 2 4 C1.01 4 0.02 4 -1 4 C-1.33 4.66 -1.66 5.32 -2 6 C-2.33 4.68 -2.66 3.36 -3 2 C-2.01 1.34 -1.02 0.68 0 0 Z " fill="#6DC4F1" transform="translate(132,114)"/>
<path d="M0 0 C1.32 0.66 2.64 1.32 4 2 C3.34 2.66 2.68 3.32 2 4 C1.83312552 6.58354218 1.83312552 6.58354218 2 9 C1.34 8.67 0.68 8.34 0 8 C-0.6875 4.5 -0.6875 4.5 -1 1 C-0.67 0.67 -0.34 0.34 0 0 Z " fill="#5EAFDA" transform="translate(139,100)"/>
<path d="M0 0 C0.66 0.33 1.32 0.66 2 1 C2 3.64 2 6.28 2 9 C0.4375 7.875 0.4375 7.875 -1 6 C-0.6875 2.8125 -0.6875 2.8125 0 0 Z " fill="#5DA879" transform="translate(5,96)"/>
<path d="M0 0 C0.33 0 0.66 0 1 0 C1.49230769 7.38461538 1.49230769 7.38461538 -1 10.5 C-1.66 10.995 -2.32 11.49 -3 12 C-2.67 10.35 -2.34 8.7 -2 7 C-1.34 7 -0.68 7 0 7 C0 4.69 0 2.38 0 0 Z " fill="#8A8CBE" transform="translate(151,47)"/>
<path d="M0 0 C3 1 3 1 4.1875 3.0625 C4.455625 3.701875 4.72375 4.34125 5 5 C4.01 5.66 3.02 6.32 2 7 C0.5393715 4.35261084 0 3.10551666 0 0 Z " fill="#80DAB5" transform="translate(51,54)"/>
<path d="M0 0 C1.98 0.66 3.96 1.32 6 2 C6 1.34 6 0.68 6 0 C6.99 0.33 7.98 0.66 9 1 C8.67 1.99 8.34 2.98 8 4 C5.64828869 3.40138258 3.3140622 2.73075648 1 2 C0.67 1.34 0.34 0.68 0 0 Z " fill="#6DAED0" transform="translate(57,47)"/>
<path d="M0 0 C2.475 0.495 2.475 0.495 5 1 C5.33 2.65 5.66 4.3 6 6 C3.97945196 4.35830472 1.97956942 2.69088222 0 1 C0 0.67 0 0.34 0 0 Z " fill="#9FE1C6" transform="translate(11,43)"/>
<path d="M0 0 C3.36720387 1.39332574 4.9859524 2.9789286 7 6 C6.01 6 5.02 6 4 6 C4 5.34 4 4.68 4 4 C2.68 4 1.36 4 0 4 C0 2.68 0 1.36 0 0 Z " fill="#51C190" transform="translate(20,26)"/>
<path d="M0 0 C0.99 0 1.98 0 3 0 C3 1.32 3 2.64 3 4 C1.02 4.99 1.02 4.99 -1 6 C-1.042721 4.33388095 -1.04063832 2.66617115 -1 1 C-0.67 0.67 -0.34 0.34 0 0 Z " fill="#6EB495" transform="translate(121,140)"/>
<path d="M0 0 C2.97 0.495 2.97 0.495 6 1 C6 1.99 6 2.98 6 4 C3.03 3.505 3.03 3.505 0 3 C0 2.01 0 1.02 0 0 Z " fill="#45B485" transform="translate(85,117)"/>
<path d="M0 0 C0 1.65 0 3.3 0 5 C-0.99 5.33 -1.98 5.66 -3 6 C-3.33 4.35 -3.66 2.7 -4 1 C-2 0 -2 0 0 0 Z " fill="#4F88A7" transform="translate(151,111)"/>
<path d="M0 0 C7.75 -0.125 7.75 -0.125 10 1 C9.67 1.99 9.34 2.98 9 4 C8.34 4 7.68 4 7 4 C7 3.01 7 2.02 7 1 C6.21625 1.20625 5.4325 1.4125 4.625 1.625 C3.325625 1.810625 3.325625 1.810625 2 2 C1.34 1.34 0.68 0.68 0 0 Z " fill="#8B87CE" transform="translate(112,57)"/>
<path d="M0 0 C1.9375 0.8125 1.9375 0.8125 4 2 C4.33 2.99 4.66 3.98 5 5 C3.68 5 2.36 5 1 5 C0.67 3.35 0.34 1.7 0 0 Z " fill="#4286AA" transform="translate(55,41)"/>
<path d="M0 0 C-0.3125 1.875 -0.3125 1.875 -1 4 C-1.99 4.66 -2.98 5.32 -4 6 C-4.33 4.68 -4.66 3.36 -5 2 C-2 0 -2 0 0 0 Z " fill="#7AC2F0" transform="translate(91,27)"/>
<path d="M0 0 C0.99 0 1.98 0 3 0 C2.67 0.99 2.34 1.98 2 3 C1.01 3 0.02 3 -1 3 C-1.33 4.98 -1.66 6.96 -2 9 C-2.33 9 -2.66 9 -3 9 C-2.67 6.69 -2.34 4.38 -2 2 C-1.34 2 -0.68 2 0 2 C0 1.34 0 0.68 0 0 Z " fill="#4F97BD" transform="translate(30,6)"/>
</svg>
